<svg width="23" height="24" viewBox="0 0 23 24" fill="none" xmlns="http://www.w3.org/2000/svg">
<path d="M14.8947 3.31579V1M14.8947 3.31579V5.63158M14.8947 3.31579H9.68421M1 10.2632V20.6842C1 21.2984 1.24398 21.8874 1.67828 22.3217C2.11257 22.756 2.7016 23 3.31579 23H19.5263C20.1405 23 20.7295 22.756 21.1638 22.3217C21.5981 21.8874 21.8421 21.2984 21.8421 20.6842V10.2632M1 10.2632H21.8421M1 10.2632V5.63158C1 5.01739 1.24398 4.42836 1.67828 3.99407C2.11257 3.55977 2.7016 3.31579 3.31579 3.31579H5.63158M21.8421 10.2632V5.63158C21.8421 5.01739 21.5981 4.42836 21.1638 3.99407C20.7295 3.55977 20.1405 3.31579 19.5263 3.31579H18.9474M5.63158 1V5.63158" stroke="#0084FE" stroke-width="1.5" stroke-linecap="round" stroke-linejoin="round"/>
</svg>
