<svg width="109" height="84" viewBox="0 0 109 84" fill="none" xmlns="http://www.w3.org/2000/svg">
<g clip-path="url(#clip0_590_2914)">
<path d="M95.3956 82.2021C91.0335 84.56 85.6103 82.32 81.8377 79.1368C78.183 75.9537 73.5851 70.059 69.5766 67.1116C63.0924 62.2779 53.6608 61.9242 46.823 66.1684C42.6966 68.6442 39.7493 72.5348 36.4482 75.9537C33.1472 79.3726 29.2566 82.6737 24.5408 83.6169C18.8819 84.6779 12.8693 81.8484 9.6861 77.1326C6.50295 72.4169 5.91347 66.1684 7.564 60.7453C9.33242 55.3221 13.2229 50.7242 17.9387 47.4232C22.0651 44.5937 27.3703 42.1179 28.0777 37.1663C28.6672 32.9221 25.7198 29.8568 24.0693 26.2021C22.4187 22.6653 21.3577 18.7747 20.8861 15.0021C20.5324 12.1726 20.5324 9.22527 21.9472 6.86738C24.4229 2.74106 30.6714 2.15159 34.9156 4.50948C39.1598 6.86738 41.6356 11.5832 43.1682 16.1811C43.7577 17.9495 44.2293 19.7179 45.1724 21.2505C46.1156 22.7832 47.5303 24.1979 49.2987 24.5516C51.1851 24.9053 53.1893 24.08 54.604 22.6653C56.844 20.4253 57.6693 17.0063 59.2019 14.2947C60.9703 11.2295 62.9745 8.16422 65.5682 5.80632C69.1051 2.50527 73.7029 0.26527 78.4187 0.383165C83.2524 0.501059 87.9682 3.33053 89.6187 7.92843C91.2693 12.4084 89.6187 17.36 87.0251 21.3684C84.4314 25.3769 80.8945 28.6779 78.3008 32.5684C75.5893 36.459 73.8209 41.4105 75.2356 45.8905C77.2398 49.5453 81.0124 50.7242 85.3745 54.2611C89.7366 57.7979 96.2208 62.8674 98.5787 67.819C101.055 72.4169 100.347 79.6084 95.3956 82.2021Z" fill="#C2E9FF"/>
<path d="M55.429 81.4947C55.3111 81.9663 54.7216 82.2021 54.3679 81.9663L53.189 81.4947L52.7174 82.6737C52.5995 83.1453 52.01 83.381 51.5384 83.1453C51.0669 83.0274 50.8311 82.4379 51.0669 82.0842L51.5384 80.9053L50.3595 80.4337C49.8879 80.3158 49.6521 79.7263 49.8879 79.2547C50.0058 78.7831 50.5953 78.5474 50.949 78.7831L52.1279 79.2547L52.5995 78.0758C52.7174 77.6042 53.3069 77.3684 53.6606 77.6042C54.1321 77.7221 54.3679 78.3116 54.1321 78.6652L53.6606 79.8442L54.8395 80.3158C55.429 80.5516 55.6648 81.0231 55.429 81.4947ZM11.9258 37.0484C12.0437 37.52 11.69 37.9916 11.2184 37.9916L10.0395 38.2274L10.2753 39.4063C10.3932 39.8779 10.0395 40.3495 9.56792 40.3495C9.09634 40.4674 8.62476 40.1137 8.62476 39.6421L8.38897 38.4631L7.21003 38.6989C6.73845 38.8168 6.26687 38.4631 6.26687 37.9916C6.14897 37.52 6.50266 37.0484 6.97424 37.0484L8.15318 36.8126L7.91739 35.6337C7.7995 35.1621 8.15318 34.6905 8.62476 34.6905C9.09634 34.5726 9.56792 34.9263 9.56792 35.3979L9.80371 36.5768L10.9827 36.341C11.3363 36.341 11.8079 36.5768 11.9258 37.0484Z" fill="#C2E9FF"/>
<path d="M80.7764 19.2463V70.6484C80.7764 73.0063 78.8901 74.8926 76.5322 74.8926H35.8585C33.5006 74.8926 31.6143 73.0063 31.6143 70.6484V19.2463C31.6143 16.8884 33.5006 15.0021 35.8585 15.0021H76.5322C78.8901 14.8842 80.7764 16.8884 80.7764 19.2463Z" fill="white"/>
<path d="M80.7759 19.2463V70.6484C80.7759 73.0063 78.8896 74.8926 76.5317 74.8926H73.3485C75.7064 74.8926 77.5927 73.0063 77.5927 70.6484V19.2463C77.5927 16.8884 75.7064 15.0021 73.3485 15.0021H76.5317C78.8896 14.8842 80.7759 16.8884 80.7759 19.2463Z" fill="#C2E9FF"/>
<path d="M80.7767 35.6336V55.2041C80.423 55.322 79.9515 55.4399 79.5978 55.4399H79.2441L68.162 66.7578L68.0441 66.8757C67.9262 66.9936 67.6904 67.1115 67.6904 67.2294C67.6904 67.2294 67.5725 67.3473 67.3367 67.3473L66.983 67.5831H66.8651L59.7915 70.5304C59.4378 70.6483 59.0841 70.7662 58.7304 70.7662C58.023 70.7662 57.3157 70.4126 56.7262 69.941C55.9009 69.1157 55.6651 67.9368 56.1367 66.8757L59.0841 59.9199V59.802L59.202 59.4483C59.202 59.4483 59.202 59.3305 59.3199 59.3305L59.4378 58.9768L59.6736 58.741L71.1093 47.0694C71.1093 45.8904 71.463 44.8294 72.2883 44.122L80.7767 35.6336Z" fill="#CEDBF0" fill-opacity="0.188235"/>
<path d="M58.73 68.9979H37.6268C36.9195 68.9979 36.4479 68.4084 36.4479 67.819C36.4479 67.1116 37.0373 66.64 37.6268 66.64H58.73C59.4373 66.64 59.9089 67.2295 59.9089 67.819C59.9089 68.5263 59.3195 68.9979 58.73 68.9979ZM54.4858 60.8632H37.6268C36.9195 60.8632 36.4479 60.2737 36.4479 59.6842C36.4479 58.9768 37.0373 58.5053 37.6268 58.5053H54.4858C55.1931 58.5053 55.6647 59.0947 55.6647 59.6842C55.6647 60.2737 55.1931 60.8632 54.4858 60.8632ZM61.4416 52.7284H37.6268C36.9195 52.7284 36.4479 52.139 36.4479 51.5495C36.4479 50.8421 37.0373 50.3705 37.6268 50.3705H61.5595C62.2668 50.3705 62.7384 50.96 62.7384 51.5495C62.6205 52.139 62.1489 52.7284 61.4416 52.7284ZM69.2226 44.4758H37.6268C36.9195 44.4758 36.4479 43.8863 36.4479 43.2968C36.4479 42.5895 37.0373 42.1179 37.6268 42.1179H69.2226C69.93 42.1179 70.4016 42.7074 70.4016 43.2968C70.4016 44.0042 69.8121 44.4758 69.2226 44.4758ZM74.7637 36.3411H37.6268C36.9195 36.3411 36.4479 35.7516 36.4479 35.1621C36.4479 34.4547 37.0373 33.9832 37.6268 33.9832H74.7637C75.471 33.9832 75.9426 34.5726 75.9426 35.1621C75.9426 35.7516 75.3531 36.3411 74.7637 36.3411ZM74.7637 28.0884H37.6268C36.9195 28.0884 36.4479 27.499 36.4479 26.9095C36.4479 26.2021 37.0373 25.7305 37.6268 25.7305H74.7637C75.471 25.7305 75.9426 26.32 75.9426 26.9095C75.9426 27.6168 75.3531 28.0884 74.7637 28.0884Z" fill="#C2E9FF"/>
<path d="M39.3953 22.4295C40.8278 22.4295 41.989 21.2683 41.989 19.8358C41.989 18.4034 40.8278 17.2421 39.3953 17.2421C37.9629 17.2421 36.8016 18.4034 36.8016 19.8358C36.8016 21.2683 37.9629 22.4295 39.3953 22.4295Z" fill="#C2E9FF"/>
<path d="M47.7654 22.4294C49.1979 22.4294 50.3591 21.2681 50.3591 19.8357C50.3591 18.4032 49.1979 17.242 47.7654 17.242C46.333 17.242 45.1718 18.4032 45.1718 19.8357C45.1718 21.2681 46.333 22.4294 47.7654 22.4294Z" fill="#C2E9FF"/>
<path d="M56.1363 22.4295C57.5687 22.4295 58.73 21.2683 58.73 19.8358C58.73 18.4034 57.5687 17.2421 56.1363 17.2421C54.7038 17.2421 53.5426 18.4034 53.5426 19.8358C53.5426 21.2683 54.7038 22.4295 56.1363 22.4295Z" fill="#C2E9FF"/>
<path d="M64.5069 22.4295C65.9393 22.4295 67.1006 21.2683 67.1006 19.8358C67.1006 18.4034 65.9393 17.2421 64.5069 17.2421C63.0744 17.2421 61.9132 18.4034 61.9132 19.8358C61.9132 21.2683 63.0744 22.4295 64.5069 22.4295Z" fill="#C2E9FF"/>
<path d="M72.8777 22.4294C74.3102 22.4294 75.4714 21.2681 75.4714 19.8357C75.4714 18.4032 74.3102 17.242 72.8777 17.242C71.4453 17.242 70.2841 18.4032 70.2841 19.8357C70.2841 21.2681 71.4453 22.4294 72.8777 22.4294Z" fill="#C2E9FF"/>
<path d="M93.5094 39.1705L80.541 52.2568C79.9515 52.8463 79.1263 52.8463 78.5368 52.2568L74.2926 48.1305C73.7031 47.541 73.7031 46.7158 74.2926 46.1263L87.261 33.04C87.8505 32.3326 89.0294 32.4505 89.8547 33.2758L93.1557 36.5768C93.981 37.2842 94.0989 38.4631 93.5094 39.1705Z" fill="white"/>
<path d="M93.5094 39.1706L80.541 52.2569C79.9515 52.8463 79.1262 52.8463 78.5368 52.2569L76.2968 50.0169C76.7683 50.1348 77.3578 50.0169 77.7115 49.6632L90.6799 36.5769C91.2694 35.8695 91.1515 34.8084 90.4441 33.9832L89.1473 32.6863C89.3831 32.8042 89.7368 32.9221 89.9726 33.1579L93.2736 36.459C93.981 37.2842 94.0989 38.4632 93.5094 39.1706Z" fill="#C2E9FF"/>
<path d="M66.039 64.7538L78.5358 52.139L74.2916 47.8948L61.7948 60.5096L66.039 64.7538Z" fill="white"/>
<path d="M78.5364 52.139L66.0395 64.7537L64.1532 62.9853L76.5321 50.4884L74.0564 48.0126L74.2921 47.8947L78.5364 52.139Z" fill="#C2E9FF"/>
<path d="M66.0398 64.7538L58.7303 67.8191L61.7956 60.5096L66.0398 64.7538Z" fill="white"/>
<path d="M66.0398 64.7538L58.7303 67.819L61.7956 60.5096L66.0398 64.7538ZM95.0419 34.8085L93.2735 36.5769L89.9725 33.158L91.7409 31.3896C92.684 30.4464 94.2167 30.4464 95.1598 31.3896C95.9851 32.3327 95.9851 33.8653 95.0419 34.8085Z" fill="white"/>
<path d="M45.7616 73.7137H55.429C53.8964 70.4127 54.0143 67.2295 55.6648 63.8105C55.9006 63.4569 55.7827 62.9853 55.6648 62.6316C55.429 62.2779 55.0753 62.0421 54.6037 62.0421H53.8964C55.0753 60.8632 55.7827 59.0948 55.7827 57.3263C55.7827 53.4358 52.5995 50.3705 48.8269 50.3705H15.109C14.6374 50.3705 14.2837 50.6063 14.0479 50.96C13.8121 51.3137 13.8121 51.7853 14.0479 52.139C15.8164 55.7937 15.8164 59.2127 14.0479 62.6316C13.8121 62.9853 13.8121 63.4569 14.0479 63.8105C14.2837 64.1642 14.6374 64.4 15.109 64.4H15.8164C14.6374 65.579 13.93 67.3474 13.93 69.2337C13.93 73.1242 16.9953 76.1895 20.8858 76.1895H45.7616V73.7137Z" fill="#CEDBF0" fill-opacity="0.313726"/>
<path d="M52.3637 63.2211C50.3595 67.2295 50.4774 71.12 52.3637 74.7748H18.5279C15.3448 74.7748 12.7511 72.1811 12.7511 68.9979C12.7511 65.8148 15.3448 63.2211 18.5279 63.2211H52.3637Z" fill="white"/>
<path d="M50.9485 70.2947C50.9485 71.0021 51.0664 71.7095 51.3022 72.2989H18.5275C16.7591 72.2989 15.2264 70.8842 15.2264 68.9979C15.2264 67.2295 16.6412 65.6968 18.5275 65.6968H51.3022C51.1843 66.4042 51.0664 67.1116 50.9485 67.7011C50.8307 68.6442 50.8307 69.4695 50.9485 70.2947Z" fill="#C2E9FF"/>
<path d="M50.949 70.2947H26.4269C25.7195 70.2947 25.13 69.7053 25.13 68.9979C25.13 68.2905 25.7195 67.7011 26.4269 67.7011H50.949C50.8311 68.6442 50.8311 69.4695 50.949 70.2947ZM12.7511 51.4316C14.7553 55.44 14.6374 59.3305 12.7511 62.9853H46.5869C49.7701 62.9853 52.3637 60.3916 52.3637 57.2084C52.3637 54.0253 49.7701 51.4316 46.5869 51.4316H12.7511Z" fill="white"/>
<path d="M14.1661 58.5052C14.1661 59.2126 14.0482 59.9199 13.8124 60.5094H46.5871C48.3555 60.5094 49.8882 59.0947 49.8882 57.2083C49.8882 55.4399 48.4734 53.9073 46.5871 53.9073H13.8124C13.9303 54.6147 14.0482 55.322 14.1661 55.9115V58.5052Z" fill="#C2E9FF"/>
<path d="M14.1658 58.5053H38.6879C39.3952 58.5053 39.9847 57.9158 39.9847 57.2084C39.9847 56.5011 39.3952 55.9116 38.6879 55.9116H14.1658V58.5053Z" fill="white"/>
<path d="M94.6875 8.6358H95.9843V9.93264C95.9843 10.4042 96.338 10.7579 96.8096 10.8758C97.2811 10.8758 97.6348 10.5221 97.7527 10.0505V8.75369H99.0496C99.5211 8.75369 99.8748 8.40001 99.9927 7.92843C99.9927 7.45685 99.639 7.10316 99.1674 6.98527H97.8706V5.68843C97.8706 5.21685 97.5169 4.86316 97.0453 4.74527C96.5738 4.74527 96.2201 5.09895 96.1022 5.57053V6.86738H94.8053C94.3338 6.86738 93.9801 7.22106 93.8622 7.69264C93.8622 8.28211 94.2159 8.6358 94.6875 8.6358ZM100.7 54.379L99.5211 53.9074L99.9927 52.7284C100.111 52.2568 99.9927 51.7853 99.5211 51.6674C99.0496 51.5495 98.578 51.6674 98.4601 52.139L97.9885 53.3179L96.8096 52.8463C96.338 52.7284 95.8664 52.8463 95.7485 53.3179C95.6306 53.7895 95.7485 54.2611 96.2201 54.379L97.399 54.8505L96.9274 56.0295C96.8095 56.5011 96.9274 56.9726 97.399 57.0905C97.8706 57.2084 98.3422 57.0905 98.578 56.619L99.0496 55.44L100.229 55.9116C100.7 56.0295 101.172 55.9116 101.29 55.44C101.407 55.0863 101.172 54.6147 100.7 54.379ZM107.302 73.7137H103.883C103.176 73.7137 102.704 74.1853 102.704 74.8926C102.704 75.6 103.176 76.0716 103.883 76.0716H107.302C108.01 76.0716 108.481 75.6 108.481 74.8926C108.481 74.1853 108.01 73.7137 107.302 73.7137Z" fill="#0084FE"/>
<path d="M98.4605 73.7137H81.0121C81.6016 72.8884 81.9553 71.8274 81.9553 70.6484V52.4926L93.0374 41.2926L94.3342 42.5895C94.6879 42.9432 94.6879 43.2968 94.57 43.4147L85.4921 52.3747C85.0205 52.8463 85.0205 53.5537 85.4921 54.0253C85.9637 54.4968 86.6711 54.4968 87.1427 54.0253L96.1026 44.9474C97.1637 43.8863 97.0458 42 95.8669 40.8211L94.57 39.5242C95.0416 38.6989 95.1595 37.6379 94.6879 36.6947L95.749 35.6337C97.1637 34.2189 97.1637 31.9789 95.749 30.5642C94.3342 29.1495 92.0942 29.1495 90.6795 30.5642L89.6184 31.6253L88.5574 31.2716C87.7321 31.1537 86.9069 31.5074 86.3174 31.9789L81.9553 36.6947V19.2463C81.9553 16.2989 79.4795 13.8232 76.5321 13.8232H74.0563V10.8758C74.0563 10.1684 73.5848 9.69684 72.8774 9.69684C72.17 9.69684 71.6984 10.1684 71.6984 10.8758V13.8232H65.6858V10.8758C65.6858 10.1684 65.2142 9.69684 64.5069 9.69684C63.7995 9.69684 63.3279 10.1684 63.3279 10.8758V13.8232H57.3153V10.8758C57.3153 10.1684 56.8437 9.69684 56.1363 9.69684C55.429 9.69684 54.9574 10.1684 54.9574 10.8758V13.8232H48.9448V10.8758C48.9448 10.1684 48.4732 9.69684 47.7658 9.69684C47.0584 9.69684 46.5869 10.1684 46.5869 10.8758V13.8232H40.5742V10.8758C40.5742 10.1684 40.1026 9.69684 39.3953 9.69684C38.6879 9.69684 38.2163 10.1684 38.2163 10.8758V13.8232H35.7405C32.7932 13.8232 30.3174 16.2989 30.3174 19.2463V50.3705H12.6332C12.2795 50.3705 11.8079 50.6063 11.5721 50.96C11.3363 51.3137 11.3363 51.7853 11.5721 52.1389C13.3405 55.7937 13.3405 59.2126 11.5721 62.6316C11.3363 62.9853 11.4542 63.4568 11.5721 63.8105C11.8079 64.1642 12.1616 64.4 12.6332 64.4H13.3405C10.8647 66.9937 10.7469 71.12 13.2226 73.8316H1.19738C0.490012 73.8316 0.0184326 74.3032 0.0184326 75.0105C0.0184326 75.7179 0.490012 76.1895 1.19738 76.1895H98.4605C99.1679 76.1895 99.6395 75.7179 99.6395 75.0105C99.6395 74.3032 99.05 73.7137 98.4605 73.7137ZM76.8858 52.1389L66.0395 63.1032C65.9216 62.9853 63.21 60.3916 63.4458 60.5095L74.2921 49.5453C74.41 49.6632 77.0037 52.3747 76.8858 52.1389ZM63.9174 64.4L60.8521 65.6968L62.149 62.6316L63.9174 64.4ZM92.5658 32.2147C93.0374 31.7432 93.8626 31.7432 94.3342 32.2147C94.8058 32.6863 94.8058 33.5116 94.3342 33.9832L93.3911 34.9263L91.6226 33.1579L92.5658 32.2147ZM88.0858 33.7474C88.2037 33.6295 88.2037 33.6295 88.3216 33.6295C88.5574 33.6295 88.7932 33.7474 89.029 33.9832L92.33 37.2842C92.6837 37.6379 92.6837 38.1095 92.5658 38.2274L79.5974 51.3137C79.5974 51.4316 79.4795 51.4316 79.4795 51.4316C79.3616 51.4316 79.3616 51.4316 79.3616 51.3137C79.2437 51.1958 74.8816 46.8337 75.1174 47.1874C74.9995 47.0695 74.9995 46.9516 75.1174 46.8337L88.0858 33.7474ZM32.6753 19.2463C32.6753 17.5958 34.09 16.181 35.7405 16.181H38.2163V19.7179C38.2163 20.4253 38.6879 20.8968 39.3953 20.8968C40.1026 20.8968 40.5742 20.4253 40.5742 19.7179V16.181H46.5869V19.7179C46.5869 20.4253 47.0584 20.8968 47.7658 20.8968C48.4732 20.8968 48.9448 20.4253 48.9448 19.7179V16.181H54.9574V19.7179C54.9574 20.4253 55.429 20.8968 56.1363 20.8968C56.8437 20.8968 57.3153 20.4253 57.3153 19.7179V16.181H63.3279V19.7179C63.3279 20.4253 63.7995 20.8968 64.5069 20.8968C65.2142 20.8968 65.6858 20.4253 65.6858 19.7179V16.181H71.6984V19.7179C71.6984 20.4253 72.17 20.8968 72.8774 20.8968C73.5848 20.8968 74.0563 20.4253 74.0563 19.7179V16.181H76.5321C78.1826 16.181 79.5974 17.5958 79.5974 19.2463V39.0526L73.4669 45.1832C72.7595 45.8905 72.6416 46.8337 72.7595 47.6589L60.8521 59.6842C60.7342 59.8021 60.7342 59.92 60.6163 60.0379L57.669 67.3474C57.4332 67.819 57.5511 68.2905 57.9048 68.6442C58.2584 68.9979 58.73 69.1158 59.2016 68.88L66.5111 65.8147C66.629 65.8147 66.7469 65.6968 66.8648 65.5789L78.7721 53.5537C79.0079 53.6716 79.3616 53.6716 79.5974 53.6716V70.4126C79.5974 72.0632 78.1826 73.4779 76.5321 73.4779H53.189C51.6563 70.1768 51.7742 66.9937 53.5426 63.5747C53.7784 63.2211 53.6605 62.7495 53.5426 62.3958C53.3069 62.0421 52.9532 61.8063 52.4816 61.8063H51.7742C52.9532 60.5095 53.6605 58.8589 53.6605 56.9726C53.6605 53.0821 50.4774 50.0168 46.7048 50.0168H32.6753V19.2463ZM46.5869 52.6105C49.1805 52.6105 51.1848 54.7326 51.1848 57.2084C51.1848 59.6842 49.0626 61.8063 46.5869 61.8063H14.5195C15.6984 58.7411 15.6984 55.6758 14.5195 52.6105H46.5869ZM13.93 68.9979C13.93 66.4042 16.0521 64.4 18.5279 64.4H50.5953C49.4163 67.4653 49.4163 70.6484 50.5953 73.5958H18.5279C15.9342 73.7137 13.93 71.5916 13.93 68.9979Z" fill="#0084FE"/>
</g>
<defs>
<clipPath id="clip0_590_2914">
<rect width="108.5" height="84" fill="white"/>
</clipPath>
</defs>
</svg>
