<svg width="34" height="36" viewBox="0 0 34 36" fill="none" xmlns="http://www.w3.org/2000/svg">
<g clip-path="url(#clip0_102_2)">
<path fill-rule="evenodd" clip-rule="evenodd" d="M31.7505 17.389C31.5863 17.4163 31.4399 17.5068 31.3433 17.6407C31.2468 17.7746 31.208 17.9408 31.2357 18.1029C31.3713 18.8961 31.4403 19.6955 31.4403 20.4788C31.4403 24.8465 29.4689 28.7891 26.2895 31.4141C26.0245 29.6957 25.2726 28.0863 24.1206 26.7715C22.9686 25.4568 21.4634 24.4904 19.7788 23.9839C20.4684 23.5322 21.0341 22.9193 21.4256 22.1997C21.8171 21.48 22.0222 20.676 22.0227 19.8591C22.0227 17.125 19.77 14.9015 17 14.9015C14.23 14.9015 11.9773 17.125 11.9773 19.8591C11.9773 21.5794 12.8701 23.094 14.2212 23.9839C12.5366 24.4904 11.0314 25.4568 9.87939 26.7715C8.72738 28.0863 7.97548 29.6957 7.71046 31.4141C6.09214 30.0756 4.79185 28.4022 3.90173 26.5124C3.0116 24.6227 2.55342 22.5628 2.55965 20.4788C2.55965 19.6955 2.62871 18.8974 2.76433 18.1029C2.77945 18.0221 2.77812 17.9391 2.76043 17.8587C2.74273 17.7784 2.70902 17.7024 2.66126 17.635C2.61351 17.5677 2.55265 17.5104 2.48224 17.4665C2.41183 17.4226 2.33328 17.3929 2.25115 17.3793C2.16903 17.3656 2.08497 17.3683 2.00388 17.387C1.92279 17.4057 1.84628 17.4402 1.77882 17.4884C1.71135 17.5366 1.65427 17.5975 1.61091 17.6677C1.56754 17.7379 1.53876 17.8159 1.52623 17.8971C1.37958 18.7501 1.30524 19.6137 1.30397 20.4788C1.30397 28.0888 6.81139 34.5126 14.3982 35.752C14.5596 35.7726 14.7227 35.7306 14.8533 35.6348C14.9839 35.5391 15.0717 35.397 15.0982 35.2385C15.1248 35.0801 15.0879 34.9177 14.9956 34.7855C14.9032 34.6533 14.7624 34.5617 14.6029 34.53C12.5515 34.1955 10.598 33.4259 8.87699 32.2743C9.1771 28.069 12.6804 24.8168 17 24.8168C21.3195 24.8168 24.8216 28.069 25.1243 32.2743C23.4029 33.4261 21.4489 34.1957 19.3971 34.53C19.3135 34.5407 19.2329 34.5679 19.1602 34.6099C19.0874 34.652 19.024 34.7081 18.9737 34.7749C18.9235 34.8417 18.8873 34.9178 18.8675 34.9987C18.8476 35.0795 18.8445 35.1635 18.8582 35.2456C18.872 35.3277 18.9023 35.4063 18.9475 35.4765C18.9927 35.5468 19.0517 35.6074 19.1211 35.6546C19.1905 35.7019 19.2688 35.7349 19.3514 35.7516C19.434 35.7683 19.5191 35.7685 19.6018 35.752C27.1886 34.5126 32.696 28.09 32.696 20.4788C32.696 19.6261 32.6207 18.7573 32.4738 17.8971C32.4604 17.8168 32.431 17.7398 32.3873 17.6707C32.3437 17.6015 32.2866 17.5416 32.2193 17.4944C32.1521 17.4472 32.0761 17.4135 31.9956 17.3954C31.9151 17.3773 31.8318 17.3752 31.7505 17.389ZM13.2329 19.8591C13.2329 17.8092 14.9231 16.1409 17 16.1409C19.0769 16.1409 20.767 17.8092 20.767 19.8591C20.767 21.9091 19.0769 23.5773 17 23.5773C14.9231 23.5773 13.2329 21.9091 13.2329 19.8591ZM23.8761 4.96022C23.84 4.85002 23.7733 4.75201 23.6837 4.67731C23.594 4.60261 23.4849 4.5542 23.3688 4.53758L19.3569 3.9625L17.5625 0.373178C17.3516 -0.0482207 16.6484 -0.0482207 16.4374 0.373178L14.6431 3.9625L10.6312 4.53758C10.5152 4.55421 10.4063 4.60253 10.3167 4.67708C10.2271 4.75164 10.1605 4.84945 10.1243 4.95945C10.0881 5.06946 10.0838 5.18727 10.1119 5.29955C10.14 5.41183 10.1994 5.5141 10.2834 5.5948L13.1865 8.38718L12.5009 12.331C12.481 12.445 12.4939 12.5623 12.5381 12.6695C12.5822 12.7767 12.6559 12.8695 12.7508 12.9375C12.8457 13.0055 12.958 13.0459 13.0749 13.0541C13.1919 13.0624 13.3088 13.0381 13.4125 12.9841L17 11.1213L20.5875 12.9841C20.691 13.0389 20.8081 13.0636 20.9253 13.0553C21.0424 13.0469 21.1548 13.0059 21.2492 12.937C21.3442 12.869 21.418 12.776 21.4622 12.6687C21.5063 12.5613 21.5191 12.4439 21.4991 12.3297L20.8135 8.38842L23.7179 5.59356C23.8018 5.51297 23.8611 5.41085 23.8893 5.29872C23.9175 5.18659 23.9134 5.06891 23.8774 4.95898L23.8761 4.96022ZM19.6997 7.72534C19.6268 7.79556 19.5722 7.88222 19.5407 7.97786C19.5092 8.0735 19.5017 8.17527 19.5189 8.2744L20.0463 11.3023L17.2913 9.87199C17.201 9.82551 17.1006 9.80123 16.9987 9.80123C16.8969 9.80123 16.7965 9.82551 16.7062 9.87199L13.9525 11.3023L14.4786 8.2744C14.4957 8.17527 14.4883 8.0735 14.4568 7.97786C14.4253 7.88222 14.3707 7.79556 14.2978 7.72534L12.0702 5.5824L15.1491 5.14118C15.2496 5.1266 15.3451 5.08821 15.4273 5.02929C15.5096 4.97036 15.5761 4.89266 15.6213 4.80282L17 2.04886L18.3775 4.80406C18.4226 4.8939 18.4892 4.9716 18.5714 5.03053C18.6536 5.08945 18.7491 5.12784 18.8496 5.14241L21.9285 5.58364L19.701 7.72658L19.6997 7.72534Z" fill="#2A0C35"/>
<path fill-rule="evenodd" clip-rule="evenodd" d="M1.97576 14.9299C1.95561 15.044 1.96828 15.1615 2.01234 15.2689C2.0564 15.3763 2.13007 15.4693 2.225 15.5375C2.31994 15.6056 2.43232 15.6461 2.54941 15.6544C2.66649 15.6627 2.78358 15.6384 2.88739 15.5843L5.69886 14.1243L8.51158 15.5843C8.61494 15.6388 8.73184 15.6634 8.84873 15.655C8.96562 15.6467 9.07773 15.6058 9.17207 15.5372C9.26708 15.4692 9.34085 15.3762 9.38502 15.2688C9.42919 15.1615 9.44199 15.0441 9.42195 14.9299L8.88452 11.8401L11.1598 9.65251C11.2441 9.57186 11.3038 9.46949 11.3322 9.35703C11.3605 9.24457 11.3563 9.12652 11.3201 9.01629C11.2839 8.90606 11.2171 8.80806 11.1272 8.73342C11.0374 8.65878 10.9282 8.6105 10.812 8.59406L7.66777 8.14415L6.2614 5.3307C6.05045 4.9093 5.34727 4.9093 5.13631 5.3307L3.72995 8.14415L0.585721 8.59406C0.469501 8.6105 0.360282 8.65878 0.270466 8.73342C0.18065 8.80806 0.113836 8.90606 0.0776117 9.01629C0.0413875 9.12652 0.0372043 9.24457 0.0655372 9.35703C0.0938701 9.46949 0.153584 9.57186 0.237897 9.65251L2.51319 11.8401L1.97576 14.9299ZM2.02599 9.64135L4.23599 9.32407C4.33674 9.30968 4.43246 9.27138 4.51491 9.21244C4.59737 9.15351 4.6641 9.07571 4.70938 8.98571L5.69886 7.00638L6.68833 8.98571C6.7335 9.07555 6.80004 9.15326 6.88226 9.21218C6.96448 9.27111 7.05994 9.30949 7.16047 9.32407L9.37173 9.64135L7.77199 11.1795C7.69906 11.2497 7.6445 11.3363 7.613 11.432C7.5815 11.5276 7.57401 11.6294 7.59117 11.7285L7.96913 13.9024L5.99143 12.8762C5.9011 12.8297 5.80073 12.8054 5.69886 12.8054C5.59698 12.8054 5.49662 12.8297 5.40628 12.8762L3.42858 13.9024L3.80529 11.7285C3.82261 11.6295 3.81531 11.5278 3.78404 11.4322C3.75276 11.3365 3.69844 11.2498 3.62573 11.1795L2.02599 9.64135ZM33.4143 8.59406L30.27 8.14415L28.8637 5.3307C28.6527 4.9093 27.9495 4.9093 27.7386 5.3307L26.3322 8.14415L23.188 8.59406C23.0718 8.6105 22.9626 8.65878 22.8727 8.73342C22.7829 8.80806 22.7161 8.90606 22.6799 9.01629C22.6437 9.12652 22.6395 9.24457 22.6678 9.35703C22.6961 9.46949 22.7559 9.57186 22.8402 9.65251L25.1155 11.8401L24.578 14.9299C24.5579 15.044 24.5706 15.1615 24.6146 15.2689C24.6587 15.3763 24.7323 15.4693 24.8273 15.5375C24.9222 15.6056 25.0346 15.6461 25.1517 15.6544C25.2688 15.6627 25.3859 15.6384 25.4897 15.5843L28.3011 14.1243L31.1139 15.5843C31.2172 15.6388 31.3341 15.6634 31.451 15.655C31.5679 15.6467 31.68 15.6058 31.7743 15.5372C31.8694 15.4692 31.9431 15.3762 31.9873 15.2688C32.0315 15.1615 32.0443 15.0441 32.0242 14.9299L31.4868 11.8401L33.7621 9.65251C33.8464 9.57186 33.9061 9.46949 33.9345 9.35703C33.9628 9.24457 33.9586 9.12652 33.9224 9.01629C33.8862 8.90606 33.8193 8.80806 33.7295 8.73342C33.6397 8.65878 33.5305 8.6105 33.4143 8.59406ZM30.3743 11.1795C30.3013 11.2497 30.2468 11.3363 30.2153 11.432C30.1838 11.5276 30.1763 11.6294 30.1934 11.7285L30.5714 13.9024L28.5937 12.8762C28.5034 12.8297 28.403 12.8054 28.3011 12.8054C28.1993 12.8054 28.0989 12.8297 28.0086 12.8762L26.0309 13.9024L26.4076 11.7285C26.4249 11.6295 26.4176 11.5278 26.3863 11.4322C26.355 11.3365 26.3007 11.2498 26.228 11.1795L24.6283 9.64135L26.8383 9.32407C26.939 9.30968 27.0347 9.27138 27.1172 9.21244C27.1996 9.15351 27.2664 9.07571 27.3117 8.98571L28.3011 7.00638L29.2906 8.98571C29.3358 9.07555 29.4023 9.15326 29.4845 9.21218C29.5668 9.27111 29.6622 9.30949 29.7627 9.32407L31.974 9.64135L30.3743 11.1795Z" fill="#2A0C35"/>
<path d="M17 35.9713C17.3467 35.9713 17.6278 35.6939 17.6278 35.3516C17.6278 35.0094 17.3467 34.7319 17 34.7319C16.6532 34.7319 16.3721 35.0094 16.3721 35.3516C16.3721 35.6939 16.6532 35.9713 17 35.9713Z" fill="#2A0C35"/>
</g>
<defs>
<clipPath id="clip0_102_2">
<rect width="34" height="36" fill="white"/>
</clipPath>
</defs>
</svg>
