<svg width="109" height="84" viewBox="0 0 109 84" fill="none" xmlns="http://www.w3.org/2000/svg">
<g clip-path="url(#clip0_590_2958)">
<path d="M102.136 42.235C102.136 47.992 97.2014 52.6917 91.9143 54.5715C86.6272 56.4514 80.7526 56.3339 75.1131 56.9213C69.4735 57.5088 62.894 62.6784 58.8993 66.7906C56.3145 69.4929 55.0221 73.1351 53.1423 76.4248C51.2624 79.7146 48.6776 82.8868 45.0354 83.7093C41.0407 84.5317 36.9285 81.9469 34.5787 78.6572C32.2289 75.2499 31.1714 71.1377 29.9965 67.1431C28.8216 63.1484 28.2342 55.2765 25.4144 52.2217C22.9471 49.6369 19.6573 47.992 16.4851 46.3471C13.3128 44.7023 10.0231 42.9399 8.02572 40.0026C5.91088 37.0654 5.32343 32.8357 7.55575 30.0159C10.3755 26.4912 15.5451 26.9611 20.0098 26.6087C28.3517 25.9037 36.1061 20.8516 40.3357 13.6847C41.8631 10.9824 42.9205 8.04509 44.6829 5.3428C46.4453 2.75799 48.9126 0.408176 52.0848 0.0557033C56.432 -0.414261 60.0742 3.11047 63.129 6.28273C68.8861 12.3923 74.4081 20.1467 81.9276 24.1414C89.212 28.136 102.136 31.6608 102.136 42.235ZM16.1326 59.2712C16.0151 59.7411 15.5451 59.9761 15.0752 59.9761L13.9003 59.7411L13.6653 60.916C13.5478 61.386 13.0778 61.621 12.6079 61.621C12.1379 61.5035 11.9029 61.0335 11.9029 60.5636L12.1379 59.3886L10.963 59.1537C10.493 59.0362 10.258 58.5662 10.258 58.0962C10.3755 57.6263 10.8455 57.3913 11.3155 57.3913L12.4904 57.6263L12.7254 56.4514C12.8428 55.9814 13.3128 55.7464 13.7828 55.7464C14.2527 55.8639 14.4877 56.3339 14.4877 56.8038L14.2527 57.9788L15.4277 58.2137C15.8976 58.3312 16.2501 58.8012 16.1326 59.2712ZM69.356 80.0671C69.2385 80.537 68.7686 80.772 68.2986 80.772L67.1237 80.537L66.8887 81.7119C66.7712 82.1819 66.3013 82.4169 65.8313 82.4169C65.3613 82.2994 65.1263 81.8294 65.1263 81.3595L65.3613 80.1846L64.1864 79.9496C63.7164 79.8321 63.4815 79.3621 63.4815 78.8922C63.599 78.4222 64.0689 78.1872 64.5389 78.1872L65.7138 78.4222L65.9488 77.2473C66.0663 76.7773 66.5362 76.5423 67.0062 76.5423C67.4762 76.6598 67.7111 77.1298 67.7111 77.5998L67.4762 78.7747L68.6511 79.0096C69.121 79.1271 69.356 79.5971 69.356 80.0671Z" fill="#C2E9FF"/>
<path d="M86.7443 49.7544H85.6869C84.3945 49.7544 83.4546 50.8118 83.4546 51.9868V58.8012C83.4546 61.0336 81.6922 62.7959 79.4599 62.7959H76.0526C74.7602 62.7959 73.8203 63.8533 73.8203 65.0283V71.7252C73.8203 72.6652 73.1154 73.3701 72.1754 73.3701H53.3769C52.5544 73.3701 51.8495 72.6652 51.732 71.8427C51.497 69.3754 50.7921 66.9081 49.7346 64.6758C48.6772 62.6784 47.2673 60.7986 45.6225 59.1537C45.1525 58.6837 44.565 58.2138 43.9776 57.7438C38.103 53.2792 34.2258 46.1122 34.2258 38.2403C34.2258 37.6529 34.2258 37.1829 34.3433 36.5954C34.6958 30.4859 37.3981 24.9638 41.5103 20.8516C45.9749 16.387 52.0845 13.6847 58.8989 13.6847C65.7134 13.6847 71.823 16.387 76.2876 20.8516C80.7523 25.3163 83.4546 31.4258 83.4546 38.2403C83.4546 39.0627 83.6895 39.8852 84.1595 40.7076L88.2717 47.2871C88.8591 48.3445 88.0367 49.7544 86.7443 49.7544Z" fill="white"/>
<path d="M86.7443 49.7543H85.6869C84.3945 49.7543 83.4546 50.8117 83.4546 51.9867V58.8011C83.4546 61.0335 81.6922 62.7958 79.4599 62.7958H76.0526C74.7602 62.7958 73.8203 63.8532 73.8203 65.0281V71.7251C73.8203 72.6651 73.1154 73.37 72.1754 73.37H53.3769C52.5544 73.37 51.8495 72.6651 51.732 71.8426C51.732 71.6076 51.732 71.3727 51.6145 71.1377H67.1233C68.0632 71.1377 68.7682 70.4327 68.7682 69.4928V62.7958C68.7682 61.5034 69.8256 60.5635 71.0005 60.5635H74.4078C76.6401 60.5635 78.4024 58.8011 78.4024 56.5688V49.7543C78.4024 48.4619 79.4599 47.522 80.6348 47.522H81.6922C82.9846 47.522 83.807 46.1121 83.1021 45.0547L78.9899 38.4752C78.5199 37.7702 78.285 36.9478 78.285 36.0079C78.285 29.1934 75.5827 23.0839 71.118 18.6192C69.7081 17.2093 68.0632 15.9169 66.3009 14.8595C70.0606 16.0344 73.3503 18.1492 76.0526 20.8515C80.5173 25.3162 83.2196 31.4257 83.2196 38.2402C83.2196 39.0626 83.4546 39.8851 83.9245 40.7075L88.0367 47.287C88.8591 48.3444 88.0367 49.7543 86.7443 49.7543Z" fill="#E8F0FD"/>
<path d="M47.6201 51.6343C47.6201 53.8666 47.1502 56.0989 46.0927 58.0963C45.6228 57.6263 45.1528 57.2738 44.6829 56.9213C44.5654 56.8039 44.3304 56.6864 44.2129 56.5689C44.9178 55.0415 45.1528 53.3966 45.1528 51.7517C45.1528 45.7597 41.0406 40.8251 35.5186 39.5327V36.9479C42.4505 38.2403 47.6201 44.3498 47.6201 51.6343Z" fill="#CEDBF0" fill-opacity="0.188235"/>
<path d="M41.9807 16.7394C42.2157 16.387 42.3332 15.917 42.4507 15.5645L41.9807 16.7394Z" fill="#CEDBF0" fill-opacity="0.313726"/>
<path d="M65.0088 28.606C65.0088 30.9558 63.1289 32.9532 60.6616 32.9532C58.1943 32.9532 56.3145 31.0733 56.3145 28.606C56.3145 26.2562 58.1943 24.2589 60.6616 24.2589C63.1289 24.2589 65.0088 26.1387 65.0088 28.606Z" fill="white"/>
<path d="M65.0086 28.606C65.0086 30.9559 63.1287 32.9532 60.6614 32.9532C60.074 32.9532 59.604 32.8357 59.134 32.7182C60.7789 32.1308 61.9538 30.6034 61.9538 28.7235C61.9538 26.8437 60.7789 25.3163 59.134 24.7288C59.604 24.4939 60.074 24.4939 60.6614 24.4939C63.1287 24.2589 65.0086 26.1387 65.0086 28.606Z" fill="#E8F0FD"/>
<path d="M41.3929 11.5698C41.3929 14.272 39.1606 16.5044 36.4583 16.5044C33.756 16.5044 31.5237 14.272 31.5237 11.5698C31.5237 8.86746 33.756 6.63513 36.4583 6.63513C39.1606 6.63513 41.3929 8.86746 41.3929 11.5698Z" fill="white"/>
<path d="M41.3936 11.5698C41.3936 14.272 39.1613 16.5044 36.459 16.5044C35.989 16.5044 35.519 16.3869 35.0491 16.2694C37.0464 15.6819 38.5738 13.8021 38.5738 11.5698C38.5738 9.33743 37.0464 7.45757 35.0491 6.87011C35.519 6.75262 35.989 6.63513 36.459 6.63513C39.1613 6.63513 41.3936 8.86746 41.3936 11.5698Z" fill="#E8F0FD"/>
<path d="M84.6302 10.5124C84.6302 13.2147 82.3979 15.447 79.6956 15.447C76.9933 15.447 74.761 13.2147 74.761 10.5124C74.761 7.81009 76.9933 5.57776 79.6956 5.57776C82.5154 5.57776 84.6302 7.81009 84.6302 10.5124Z" fill="white"/>
<path d="M84.6299 10.5124C84.6299 13.2147 82.3976 15.447 79.6953 15.447C76.993 15.447 74.7607 13.2147 74.7607 10.5124C74.7607 7.81012 76.993 5.57779 79.6953 5.57779C82.5151 5.57779 84.6299 7.81012 84.6299 10.5124ZM76.0531 38.7102C76.0531 41.4125 73.8208 43.6449 71.1185 43.6449C68.4162 43.6449 66.1838 41.4125 66.1838 38.7102C66.1838 36.008 68.4162 33.7756 71.1185 33.7756C73.8208 33.7756 76.0531 36.008 76.0531 38.7102Z" fill="white"/>
<path d="M76.0527 38.7101C76.0527 41.4124 73.8204 43.6448 71.1181 43.6448C70.5306 43.6448 69.8257 43.5273 69.3557 43.2923C71.2356 42.5873 72.528 40.825 72.528 38.7101C72.528 36.5953 71.2356 34.8329 69.3557 34.128C69.9432 33.893 70.5306 33.7755 71.1181 33.7755C73.8204 33.7755 76.0527 36.0078 76.0527 38.7101Z" fill="#E8F0FD"/>
<path d="M84.6302 10.5124C84.6302 13.2147 82.3979 15.447 79.6956 15.447C76.9933 15.447 74.761 13.2147 74.761 10.5124C74.761 7.81009 76.9933 5.57776 79.6956 5.57776C82.5154 5.57776 84.6302 7.81009 84.6302 10.5124Z" fill="white"/>
<path d="M84.6295 10.5124C84.6295 13.2147 82.3972 15.447 79.6949 15.447C79.1075 15.447 78.6375 15.3295 78.05 15.212C80.0474 14.5071 81.3398 12.7447 81.3398 10.5124C81.3398 8.39754 79.9299 6.51769 78.05 5.81274C78.52 5.69525 79.1075 5.57776 79.6949 5.57776C82.5147 5.57776 84.6295 7.81009 84.6295 10.5124Z" fill="#E8F0FD"/>
<path d="M50.558 34.4806C50.558 37.1829 48.3256 39.4153 45.6233 39.4153C42.9211 39.4153 40.6887 37.1829 40.6887 34.4806C40.6887 31.7783 42.9211 29.546 45.6233 29.546C48.3256 29.546 50.558 31.7783 50.558 34.4806Z" fill="white"/>
<path d="M50.5575 34.4805C50.5575 37.1828 48.3252 39.4152 45.6229 39.4152C45.0354 39.4152 44.5655 39.2977 43.978 39.1802C45.9754 38.4752 47.2678 36.7129 47.2678 34.4805C47.2678 32.3657 45.8579 30.4859 43.978 29.7809C44.448 29.6634 45.0354 29.5459 45.6229 29.5459C48.3252 29.5459 50.5575 31.7783 50.5575 34.4805Z" fill="#E8F0FD"/>
<path d="M61.8363 45.2898C61.8363 47.9921 59.604 50.2244 56.9017 50.2244C54.1994 50.2244 51.967 47.9921 51.967 45.2898C51.967 42.5875 54.1994 40.3551 56.9017 40.3551C59.604 40.2377 61.8363 42.47 61.8363 45.2898Z" fill="white"/>
<path d="M61.8362 45.1723C61.8362 47.8746 59.6039 50.1069 56.9016 50.1069C56.1966 50.1069 55.6092 49.9894 55.0217 49.7544C56.7841 49.0495 58.0765 47.2871 58.0765 45.1723C58.0765 43.0575 56.7841 41.2951 55.0217 40.5901C55.6092 40.3552 56.1966 40.2377 56.9016 40.2377C59.6039 40.2377 61.8362 42.47 61.8362 45.1723Z" fill="#E8F0FD"/>
<path d="M43.9781 51.6342C43.9781 54.3365 43.0381 56.8038 41.5108 58.6837C39.1609 61.7385 37.751 63.6183 37.751 67.378V67.7305H27.4118V67.378C27.4118 63.5008 26.0019 61.621 23.6521 58.6837C22.1247 56.6863 21.1848 54.219 21.1848 51.6342C21.1848 45.2897 26.3544 40.2376 32.5814 40.2376C38.8085 40.2376 43.9781 45.2897 43.9781 51.6342Z" fill="white"/>
<path d="M43.9779 51.6342C43.9779 54.3365 43.038 56.8038 41.5106 58.6837C39.1608 61.7385 37.7509 63.6183 37.7509 67.378V67.7305H34.1087V67.378C34.1087 63.5008 35.5185 61.621 37.8684 58.6837C39.3958 56.6863 40.3357 54.3365 40.3357 51.6342C40.3357 45.9947 36.2235 41.1775 30.7014 40.3551C31.2889 40.2376 31.8763 40.2376 32.5813 40.2376C38.9258 40.2376 43.9779 45.2897 43.9779 51.6342Z" fill="#E8F0FD"/>
<path d="M38.6909 64.2058C39.8658 64.2058 40.8057 65.1457 40.8057 66.3206V68.4355H26.3543C25.1794 68.4355 24.2395 67.4955 24.2395 66.3206V64.2058H38.6909Z" fill="white"/>
<path d="M40.8053 66.3205V68.4354H37.868V66.3205C37.868 65.1456 36.9281 64.2057 35.7532 64.2057H38.6905C39.8654 64.2057 40.8053 65.2631 40.8053 66.3205Z" fill="#E8F0FD"/>
<path d="M37.1636 68.4355V68.7879C37.1636 71.3727 35.0487 73.3701 32.5814 73.3701C29.9966 73.3701 27.9993 71.2552 27.9993 68.7879V68.4355H37.1636Z" fill="white"/>
<path d="M17.66 9.45498L16.4851 9.68996L16.2501 8.51505C16.1326 8.04508 15.6627 7.8101 15.1927 7.92759C14.7228 8.04508 14.4878 8.51505 14.6053 8.98501L14.8402 10.1599L13.6653 10.3949C13.1954 10.5124 12.9604 10.9824 13.0779 11.4523C13.1954 11.9223 13.6653 12.1573 14.1353 12.1573L15.3102 11.9223L15.5452 13.0972C15.6627 13.5672 16.1326 13.8021 16.6026 13.6847C17.0726 13.5672 17.3076 13.0972 17.3076 12.6272L17.0726 11.4523L18.2475 11.2173C18.7174 11.0999 18.9524 10.6299 18.8349 10.1599C18.4825 9.68996 18.13 9.33749 17.66 9.45498ZM94.9691 17.2094L96.144 16.9744L96.379 18.1493C96.4965 18.6193 96.9664 18.8543 97.4364 18.7368C97.9064 18.6193 98.1414 18.1493 98.1414 17.6793L97.9064 16.5044L99.0813 16.2695C99.5513 16.152 99.7862 15.682 99.6687 15.212C99.5513 14.7421 99.0813 14.5071 98.6113 14.6246L97.4364 14.8596L97.2014 13.6847C97.0839 13.2147 96.614 12.9797 96.144 13.0972C95.674 13.2147 95.4391 13.6847 95.5566 14.1546L95.7915 15.3295L94.6166 15.5645C94.1467 15.682 93.9117 16.152 94.0292 16.6219C94.1467 17.0919 94.6166 17.3269 94.9691 17.2094ZM11.668 72.1952H1.21129C0.506341 72.1952 0.036377 72.6651 0.036377 73.3701C0.036377 74.075 0.506341 74.545 1.21129 74.545H11.668C12.3729 74.545 12.8429 74.075 12.8429 73.3701C12.8429 72.6651 12.3729 72.1952 11.668 72.1952ZM98.8463 72.1952H74.8781V65.0282C74.8781 64.4408 75.3481 63.9708 75.9356 63.9708H79.3428C82.1626 63.9708 84.5124 61.621 84.5124 58.8012V51.9867C84.5124 51.3993 84.9824 50.9293 85.5698 50.9293H86.6272C87.6847 50.9293 88.6246 50.3419 89.0946 49.5194C89.5645 48.5795 89.5645 47.5221 88.9771 46.6996L84.8649 40.1201C84.5124 39.5327 84.3949 38.9452 84.3949 38.3578C84.3949 30.3684 80.7527 22.614 73.8207 17.5619L75.9356 15.5645C76.993 16.2695 78.1679 16.7394 79.5778 16.7394C82.985 16.7394 85.6873 14.0371 85.6873 10.6299C85.6873 7.22265 82.985 4.52036 79.5778 4.52036C76.1705 4.52036 73.4682 7.22265 73.4682 10.6299C73.4682 11.8048 73.8207 12.8622 74.4082 13.8021L71.8234 16.152C63.4815 11.2173 53.2598 11.3348 45.0354 16.5044L41.8632 14.3896C42.3331 13.5672 42.5681 12.6272 42.5681 11.5698C42.5681 8.16258 39.8658 5.46028 36.4586 5.46028C33.0513 5.46028 30.3491 8.16258 30.3491 11.5698C30.3491 14.9771 33.0513 17.6793 36.4586 17.6793C37.986 17.6793 39.3959 17.0919 40.4533 16.152L43.1556 17.7968C36.5761 22.849 33.1688 30.3684 33.1688 38.1228V38.9452H32.5814C25.6494 38.9452 20.0098 44.5848 20.0098 51.5168C20.0098 54.3365 20.9498 57.0388 22.7121 59.2712C23.887 60.7985 24.7095 61.856 25.2969 63.0309C24.0045 63.5008 23.0646 64.6758 23.0646 66.0856C23.0646 67.848 24.592 69.3754 26.3544 69.3754H26.8243C26.9418 70.3153 27.2943 71.1378 27.8817 71.8427H21.4197C20.7148 71.8427 20.2448 72.3127 20.2448 73.0176C20.2448 73.7226 20.7148 74.1925 21.4197 74.1925C24.4745 74.1925 87.8021 74.31 98.8463 74.31C99.5512 74.31 100.021 73.84 100.021 73.1351C100.021 72.7826 99.5512 72.1952 98.8463 72.1952ZM79.6953 6.75268C81.8101 6.75268 83.455 8.39756 83.455 10.5124C83.455 12.6272 81.8101 14.2721 79.6953 14.2721C77.5804 14.2721 75.9356 12.6272 75.9356 10.5124C75.9356 8.51505 77.6979 6.75268 79.6953 6.75268ZM36.4586 15.3295C34.3437 15.3295 32.6989 13.5672 32.6989 11.5698C32.6989 9.45498 34.3437 7.8101 36.4586 7.8101C38.5734 7.8101 40.2183 9.45498 40.2183 11.5698C40.2183 13.6847 38.5734 15.3295 36.4586 15.3295ZM70.1785 17.7968L63.7165 23.9064C62.8941 23.3189 61.8366 22.9664 60.6617 22.9664C59.4868 22.9664 58.4294 23.3189 57.4895 24.0239L47.5027 17.9143C54.4347 14.0371 63.0116 13.8021 70.1785 17.7968ZM60.6617 31.6608C58.8994 31.6608 57.4895 30.2509 57.4895 28.4885C57.4895 24.3763 63.7165 24.3763 63.7165 28.4885C63.834 30.2509 62.4241 31.6608 60.6617 31.6608ZM35.5187 38.3578C35.5187 31.0733 38.9259 23.9064 45.3879 19.3242L55.9621 25.9037C55.4921 26.7262 55.2571 27.6661 55.2571 28.606C55.2571 29.076 55.2571 29.5459 55.3746 30.0159L51.0275 31.7783C49.9701 29.7809 47.9727 28.4885 45.6229 28.4885C42.2156 28.4885 39.5133 31.1908 39.5133 34.5981C39.5133 38.0053 42.2156 40.7076 45.6229 40.7076C49.0301 40.7076 51.7324 38.0053 51.7324 34.5981V34.1281L56.5495 32.1307C57.137 32.8357 57.8419 33.4231 58.7819 33.7756L57.0195 39.1802H56.902C53.4948 39.1802 50.7925 41.8825 50.7925 45.2897C50.7925 48.697 53.4948 51.3993 56.902 51.3993C60.3093 51.3993 63.0115 48.697 63.0115 45.2897C63.0115 42.8224 61.4842 40.5901 59.3693 39.6502L61.0142 34.0106C62.3066 34.0106 63.364 33.5406 64.304 32.7182L66.4188 34.833C65.5964 35.8905 65.0089 37.3003 65.0089 38.7102C65.0089 42.1175 67.7112 44.8198 71.1184 44.8198C74.5257 44.8198 77.228 42.1175 77.228 38.7102C77.228 35.303 74.5257 32.6007 71.1184 32.6007C70.061 32.6007 69.1211 32.8357 68.1812 33.3056L65.8313 30.9558C65.8313 30.9558 65.7138 30.8383 65.5964 30.8383C66.4188 29.1935 66.3013 27.3136 65.2439 25.6687L72.2933 19.0892C78.7553 23.6714 82.2801 30.7208 82.2801 38.2403C82.2801 39.2977 82.6325 40.3551 83.1025 41.295L87.2147 47.8745C87.3322 48.1095 87.3322 48.227 87.2147 48.3445C87.2147 48.462 87.0972 48.5795 86.8622 48.5795H85.8048C83.9249 48.5795 82.3976 50.1069 82.3976 51.9867V58.8012C82.3976 60.3286 81.1052 61.621 79.5778 61.621H76.1705C74.2907 61.621 72.7633 63.1484 72.7633 65.0282V71.7252C72.7633 71.9602 72.6458 72.0777 72.4108 72.1952H53.3773C53.2598 72.0777 53.1423 71.9602 53.1423 71.8427C52.9073 69.1404 52.2024 66.6731 51.0275 64.2058C49.6176 61.386 47.5027 58.9187 44.9179 56.9213C44.8004 56.8039 44.5655 56.6864 44.448 56.4514C45.0354 54.924 45.3879 53.2791 45.3879 51.6342C45.3879 45.6422 41.2757 40.7076 35.7536 39.4152C35.5187 39.0627 35.5187 38.7102 35.5187 38.3578ZM49.3826 34.4806C49.3826 36.5954 47.7377 38.2403 45.6229 38.2403C43.508 38.2403 41.8632 36.5954 41.8632 34.4806C41.8632 32.3657 43.508 30.7209 45.6229 30.7209C47.6202 30.7209 49.3826 32.4832 49.3826 34.4806ZM58.6644 41.8825C59.8393 42.47 60.6617 43.7623 60.6617 45.2897C60.6617 47.4046 59.0169 49.0494 56.902 49.0494C54.7872 49.0494 53.1423 47.4046 53.1423 45.2897C53.1423 43.4099 54.5522 41.765 56.4321 41.53C57.137 41.4125 57.8419 41.53 58.6644 41.8825ZM71.0009 34.9505C73.1158 34.9505 74.7607 36.5954 74.7607 38.7102C74.7607 40.8251 73.1158 42.47 71.0009 42.47C68.8861 42.47 67.2412 40.8251 67.2412 38.7102C67.2412 36.5954 69.0036 34.9505 71.0009 34.9505ZM38.6909 69.6104C40.4533 69.6104 41.9807 68.083 41.9807 66.3206C41.9807 64.9107 41.0407 63.7358 39.7483 63.2659C40.3358 62.091 41.1582 60.916 42.3331 59.3887C42.5681 59.1537 42.8031 58.8012 42.9206 58.5662C43.0381 58.5662 43.0381 58.6837 43.1556 58.6837C45.3879 60.4461 47.2678 62.6784 48.5602 65.1457C49.6176 67.2606 50.3225 69.4929 50.44 71.8427V72.0777H37.046C37.6335 71.3727 37.986 70.5503 38.1035 69.6104H38.6909ZM22.2422 51.6342C22.2422 45.9947 26.8243 41.4125 32.4639 41.4125C38.1035 41.4125 42.6856 45.9947 42.6856 51.6342C42.6856 53.9841 41.9807 56.0989 40.4533 57.9788C39.0434 59.7411 37.8685 61.2685 37.1635 63.0309H27.5293C26.8243 61.2685 25.6494 59.7411 24.2395 57.9788C23.0646 56.2164 22.2422 53.9841 22.2422 51.6342ZM25.6494 67.0256C25.2969 66.6731 25.2969 66.0856 25.6494 65.7332C25.8844 65.6157 26.1194 65.4982 26.3544 65.4982H38.6909C39.1609 65.4982 39.6308 65.9682 39.6308 66.4381C39.6308 66.9081 39.2784 67.2606 38.6909 67.2606H26.3544C26.1194 67.2606 25.8844 67.2606 25.6494 67.0256ZM29.1741 69.6104H35.8711C35.5187 70.9028 34.4612 71.8427 33.1688 72.0777H31.8764C30.584 71.9602 29.5266 70.9028 29.1741 69.6104ZM106.953 72.1952H104.721C104.016 72.1952 103.546 72.6651 103.546 73.3701C103.546 74.075 104.016 74.545 104.721 74.545H106.953C107.658 74.545 108.128 74.075 108.128 73.3701C108.128 72.7826 107.658 72.1952 106.953 72.1952Z" fill="#0084FE"/>
</g>
<defs>
<clipPath id="clip0_590_2958">
<rect width="108.164" height="84" fill="white"/>
</clipPath>
</defs>
</svg>
