<svg width="77" height="80" viewBox="0 0 77 80" fill="none" xmlns="http://www.w3.org/2000/svg">
<path d="M39 45C40.1819 45 41.3522 44.7672 42.4442 44.3149C43.5361 43.8626 44.5282 43.1997 45.364 42.364C46.1997 41.5282 46.8626 40.5361 47.3149 39.4442C47.7672 38.3522 48 37.1819 48 36C48 34.8181 47.7672 33.6478 47.3149 32.5558C46.8626 31.4639 46.1997 30.4718 45.364 29.636C44.5282 28.8003 43.5361 28.1374 42.4442 27.6851C41.3522 27.2328 40.1819 27 39 27L39 36L39 45Z" fill="#F0C980"/>
<path d="M46.5521 68.9243H49.5301C50.8737 68.9243 51.9629 70.0135 51.9629 71.3571C51.9629 72.7008 50.8737 73.79 49.5301 73.79H36.034M37.3303 68.9243H41.4449M46.8205 73.7901V76.3063C46.8205 77.6039 45.7685 78.656 44.4708 78.656H27.8399" stroke="#2A0C35" stroke-width="2" stroke-miterlimit="10" stroke-linecap="round" stroke-linejoin="round"/>
<path d="M1.16828 30.1601C2.02063 27.0455 4.39065 24.5582 7.43411 23.5424C7.38315 23.0575 7.35764 22.5704 7.35771 22.0828C7.35771 14.4736 13.5262 8.30507 21.1355 8.30507C21.2175 8.30507 21.2994 8.30586 21.3809 8.30726C21.7747 6.59381 22.6491 5.07771 23.7935 3.82223C25.0594 2.43347 26.671 1.67987 28.1138 1.27299C28.4532 1.17721 28.9382 1.10064 29.509 1.03955C33.5612 0.605639 37.0901 3.79801 37.0901 7.87351V69.541C37.0901 74.5753 33.009 78.6563 27.9749 78.6563C23.8175 78.6563 20.273 76.0336 18.9051 72.3525C18.0607 72.5328 17.1987 72.6178 16.3353 72.6057C10.2016 72.5245 5.16316 67.5482 5.01019 61.4158C4.93972 58.588 5.89176 55.9844 7.52271 53.9483C3.89237 53.7826 1 50.7871 1 47.116C1 44.2772 2.72939 41.8425 5.19206 40.8078C3.24814 39.5299 1.79235 37.5698 1.16531 35.2683" stroke="#2A0C35" stroke-width="2" stroke-miterlimit="10" stroke-linecap="round" stroke-linejoin="round"/>
<path d="M23.1416 70.4857C21.2649 71.821 18.9695 72.6063 16.4908 72.6063C10.1482 72.6063 5.00663 67.4647 5.00663 61.1221C5.00663 57.158 7.01508 53.663 10.0699 51.5993M4.01552 52.7871C2.19613 51.558 1.00003 49.4764 1.00003 47.1156C1.00003 43.3382 4.06224 40.276 7.83962 40.276M21.1353 8.30469C23.0205 8.30469 24.8174 8.68328 26.4538 9.36876M8.42181 27.4011C7.73633 25.7647 7.35774 23.9678 7.35774 22.0825M22.2119 28.9909C22.8029 26.1137 25.6144 24.2604 28.4915 24.8515M21.8035 59.6673C20.2469 56.151 21.8354 52.0386 25.3516 50.4819" stroke="#2A0C35" stroke-width="2" stroke-miterlimit="10" stroke-linecap="round" stroke-linejoin="round"/>
<path d="M23.0052 52.0522C21.44 51.5547 20.5744 49.8825 21.0719 48.3174M51.3564 11.0354C47.1902 8.52362 42.3083 7.07861 37.0889 7.07861M48.739 64.0586V60.5478C48.7386 60.3444 48.795 60.145 48.9018 59.972C49.0087 59.799 49.1618 59.6593 49.3438 59.5687C58.4794 55.049 64.7615 45.6336 64.7615 34.751C64.7615 26.5742 61.215 19.2259 55.5764 14.1599M37.0889 64.0586H49.5301C50.8737 64.0586 51.9629 65.1478 51.9629 66.4914C51.9629 67.835 50.8737 68.9243 49.5301 68.9243M69.8832 35.2573H75.7872M67.4504 20.6598L73.5392 14.584M73.5392 53.5105L67.4504 49.8547" stroke="#2A0C35" stroke-width="2" stroke-miterlimit="10" stroke-linecap="round" stroke-linejoin="round"/>
<path d="M37.0916 50.8844C37.7642 50.9655 38.4489 51.0072 39.1434 51.0072C39.838 51.0072 40.5227 50.9655 41.1953 50.8844L42.6893 46.6834C43.6938 46.402 44.661 46.001 45.5701 45.4892L49.5971 47.4034C50.6778 46.5563 51.6523 45.5818 52.4995 44.5011L50.5853 40.4742C51.0971 39.5651 51.4981 38.5979 51.7795 37.5934L55.9805 36.0994C56.0615 35.4268 56.1033 34.7421 56.1033 34.0476C56.1033 33.353 56.0615 32.6683 55.9805 31.9957L51.7795 30.5017C51.498 29.4972 51.0971 28.53 50.5853 27.6209L52.4995 23.594C51.6524 22.5133 50.6779 21.5388 49.5971 20.6917L45.5701 22.6059C44.661 22.0941 43.6938 21.6932 42.6893 21.4117L41.1953 17.2107C40.5144 17.1287 39.8292 17.0877 39.1434 17.0879C38.4489 17.0879 37.7642 17.1296 37.0916 17.2107" stroke="#2A0C35" stroke-width="2" stroke-miterlimit="10" stroke-linecap="round" stroke-linejoin="round"/>
<path d="M37.0916 42.0202C37.7717 42.197 38.4716 42.2863 39.1744 42.2858C43.7244 42.2858 47.413 38.5972 47.413 34.0472C47.413 29.4972 43.7244 25.8086 39.1744 25.8086C38.4548 25.8086 37.7569 25.9008 37.0916 26.0742" stroke="#2A0C35" stroke-width="2" stroke-miterlimit="10" stroke-linecap="round" stroke-linejoin="round"/>
</svg>
