<svg width="28" height="36" viewBox="0 0 28 36" fill="none" xmlns="http://www.w3.org/2000/svg">
<g clip-path="url(#clip0_102_16)">
<path d="M22.9975 14.1732C22.9974 12.3673 22.4696 10.6019 21.4809 9.10035C20.4922 7.5988 19.087 6.4285 17.4429 5.73744C15.7988 5.04638 13.9898 4.86561 12.2444 5.21798C10.4991 5.57035 8.89598 6.44004 7.6377 7.71707C6.37942 8.9941 5.52253 10.6211 5.17539 12.3924C4.82825 14.1636 5.00646 15.9996 5.68746 17.668C6.36847 19.3365 7.5217 20.7626 9.00132 21.7659C10.4809 22.7692 12.2205 23.3048 14 23.3048C16.3855 23.3019 18.6724 22.3389 20.3592 20.627C22.046 18.9151 22.9948 16.5942 22.9975 14.1732ZM14 21.9608C12.4823 21.9608 10.9987 21.5042 9.73672 20.6485C8.47476 19.7929 7.49117 18.5766 6.91033 17.1537C6.32948 15.7307 6.17746 14.1649 6.4735 12.6542C6.76954 11.1435 7.50035 9.75591 8.57349 8.66676C9.64664 7.57762 11.0139 6.83589 12.5025 6.53538C13.991 6.23487 15.5339 6.38906 16.9361 6.97847C18.3382 7.56788 19.5367 8.56602 20.3799 9.84668C21.2231 11.1273 21.6731 12.633 21.6731 14.1732C21.6711 16.2379 20.8621 18.2175 19.4235 19.6775C17.985 21.1375 16.0345 21.9586 14 21.9608Z" fill="#2A0C35"/>
<path d="M23.1129 22.8972C23.4089 22.7578 23.7148 22.6414 24.0281 22.5489C24.7959 22.2993 25.6661 22.0163 26.0956 21.2594C26.5194 20.516 26.3302 19.6189 26.1633 18.8275C26.0293 18.3802 25.985 17.9101 26.0332 17.4451C26.2164 17.038 26.4769 16.6716 26.7998 16.3668C27.3465 15.7559 27.9659 15.0636 27.9659 14.1731C27.9659 13.2826 27.3461 12.5898 26.7998 11.9789C26.4767 11.6739 26.216 11.3072 26.0328 10.8998C25.9849 10.4348 26.0293 9.96476 26.1633 9.51744C26.3306 8.72563 26.5198 7.82784 26.0956 7.08557C25.6661 6.33062 24.7963 6.048 24.027 5.7984C23.5877 5.69568 23.1724 5.50651 22.8048 5.2416C22.5419 4.86776 22.3542 4.44497 22.2524 3.99744C22.0068 3.2183 21.728 2.33549 20.9845 1.9008C20.2504 1.46918 19.3669 1.6608 18.5856 1.83091C18.1448 1.96719 17.6816 2.01211 17.2234 1.96301C16.8224 1.77713 16.4614 1.51275 16.1613 1.18502C15.5597 0.628608 14.8774 0 14 0C13.1225 0 12.4403 0.628608 11.8383 1.18349C11.5378 1.51161 11.1764 1.77614 10.7747 1.96186C10.3171 2.01066 9.85451 1.96561 9.41442 1.82938C8.63307 1.65965 7.74955 1.46726 7.01777 1.89811C6.27199 2.33395 5.99312 3.21677 5.74717 3.9959C5.64593 4.44251 5.45898 4.86449 5.19701 5.23776C4.82933 5.50458 4.41336 5.6951 3.97296 5.7984C3.20523 6.04762 2.33534 6.33062 1.90701 7.08557C1.48172 7.82976 1.6709 8.72755 1.83777 9.51936C1.9719 9.96667 2.01629 10.4367 1.96831 10.9018C1.78472 11.3084 1.52426 11.6745 1.20172 11.9793C0.654959 12.5902 0.035553 13.2849 0.035553 14.1734C0.035553 15.062 0.654959 15.7563 1.20172 16.3672C1.52449 16.6725 1.78474 17.0395 1.96755 17.447C2.01512 17.9115 1.97061 18.3808 1.83663 18.8275C1.66977 19.6197 1.48058 20.5171 1.90474 21.2594C2.3342 22.0163 3.20447 22.2993 3.9722 22.5489C4.28551 22.6413 4.59138 22.758 4.88712 22.8979L0.796472 31.7718C0.745334 31.8827 0.72503 32.0057 0.737751 32.1274C0.750473 32.2492 0.795738 32.3651 0.868655 32.4627C0.941573 32.5603 1.03937 32.6357 1.15149 32.681C1.2636 32.7263 1.38577 32.7396 1.5048 32.7195L5.60377 32.0306L7.71209 35.6652C7.77053 35.766 7.85392 35.8496 7.95401 35.9077C8.0541 35.9657 8.1674 35.9962 8.28269 35.9962H8.31372C8.43399 35.9902 8.55039 35.9511 8.6504 35.8831C8.75041 35.815 8.83023 35.7205 8.88128 35.6099L12.5092 27.744C12.9122 28.1302 13.4455 28.3454 13.9998 28.3454C14.5541 28.3454 15.0874 28.1302 15.4904 27.744L19.1176 35.6076C19.1686 35.7182 19.2484 35.8127 19.3484 35.8808C19.4484 35.9488 19.5648 35.9879 19.6851 35.9939H19.7161C19.8314 35.9939 19.9447 35.9634 20.0448 35.9053C20.1449 35.8473 20.2283 35.7637 20.2867 35.6628L22.3947 32.0283L26.494 32.7172C26.6131 32.7373 26.7353 32.724 26.8474 32.6788C26.9595 32.6335 27.0573 32.558 27.1302 32.4604C27.2031 32.3629 27.2483 32.2469 27.261 32.1251C27.2736 32.0033 27.2532 31.8803 27.202 31.7695L23.1129 22.8972ZM8.21572 33.8842L6.5149 30.9516C6.4471 30.8345 6.34594 30.7411 6.22476 30.6836C6.10358 30.626 5.96807 30.6072 5.83609 30.6294L2.52907 31.185L5.71955 24.2623L5.74945 24.3564C5.99539 25.1324 6.27388 26.0125 7.01588 26.4476C7.74842 26.8796 8.63382 26.6868 9.41442 26.5175C9.85419 26.3816 10.3163 26.3363 10.7736 26.3843C11.0324 26.4845 11.2689 26.636 11.4694 26.8301L8.21572 33.8842ZM12.7249 26.1658C12.2798 25.6838 11.7295 25.3145 11.1183 25.0875C10.9115 25.0332 10.6987 25.0067 10.4852 25.0084C10.0302 25.0259 9.57824 25.0917 9.13669 25.2046C8.56458 25.329 7.97166 25.4584 7.67917 25.2856C7.37647 25.1094 7.19145 24.5176 7.0102 23.9459C6.86308 23.3416 6.59888 22.7731 6.23301 22.2735C6.22355 22.2612 6.21674 22.2555 6.20766 22.2447L6.20312 22.2394C6.17739 22.2094 6.1509 22.1779 6.13123 22.1576C5.62254 21.7263 5.02117 21.4224 4.37555 21.2701C3.81026 21.0862 3.22566 20.8961 3.05123 20.5882C2.88247 20.2929 3.00923 19.6915 3.13182 19.1101C3.32453 18.4586 3.36341 17.7703 3.24534 17.1007C3.02188 16.4779 2.65653 15.9175 2.17907 15.4652C1.77458 15.0132 1.35685 14.5459 1.35685 14.1746C1.35685 13.8033 1.77307 13.3359 2.17907 12.884C2.65617 12.4321 3.02138 11.8723 3.24496 11.25C3.36326 10.5801 3.32437 9.89128 3.13145 9.23942C3.00885 8.65766 2.88209 8.0567 3.05199 7.7591C3.22566 7.4519 3.80874 7.26298 4.37631 7.07942C5.02307 6.92651 5.62537 6.62147 6.13463 6.18893C6.5596 5.67266 6.85924 5.06238 7.00945 4.40717C7.19069 3.83347 7.37799 3.24019 7.68182 3.06317C7.97317 2.89114 8.56534 3.02016 9.13782 3.14458C9.7798 3.3401 10.4581 3.37956 11.1179 3.25978C11.7318 3.03316 12.2841 2.66236 12.7298 2.17766C13.1747 1.76717 13.6352 1.34323 14.0011 1.34323C14.367 1.34323 14.8275 1.76563 15.2725 2.17766C15.7178 2.66199 16.2696 3.03265 16.8829 3.25939C17.543 3.37945 18.2217 3.33998 18.864 3.14419C19.4373 3.01939 20.0298 2.89152 20.3227 3.06394C20.6254 3.23981 20.8116 3.83194 20.9924 4.40794C21.1436 5.0635 21.4443 5.67391 21.8703 6.19008C22.379 6.62143 22.9803 6.92564 23.6259 7.07827C24.1912 7.26182 24.7758 7.4519 24.9503 7.75987C25.1194 8.05555 24.9926 8.65651 24.87 9.23827C24.6767 9.88949 24.6372 10.5778 24.7546 11.2474C24.9775 11.8702 25.3423 12.4308 25.8194 12.8832C26.2239 13.3352 26.6416 13.8021 26.6416 14.1738C26.6416 14.5455 26.2254 15.0125 25.8194 15.4644C25.3422 15.9162 24.9769 16.4761 24.7535 17.0984C24.6352 17.7684 24.6741 18.4574 24.867 19.1094C24.9896 19.6908 25.1164 20.2921 24.9472 20.5874V20.5893C24.7736 20.8965 24.1905 21.0854 23.6229 21.2694C22.9749 21.4225 22.3716 21.7285 21.8619 22.1626C21.8378 22.1866 21.8153 22.2122 21.7946 22.2394C21.765 22.273 21.7386 22.3093 21.7159 22.348C21.3816 22.8321 21.1355 23.373 20.989 23.9451C20.8108 24.5184 20.6216 25.1078 20.3189 25.2864C20.0272 25.4569 19.4343 25.3286 18.8621 25.2046C18.2195 25.0088 17.5403 24.9693 16.8798 25.0894C16.2689 25.3165 15.7189 25.6858 15.274 26.1677C14.8286 26.577 14.3678 27.0029 14 27.0029C13.6322 27.0029 13.1713 26.577 12.7249 26.1646V26.1658ZM22.1639 30.6294C22.0319 30.6073 21.8965 30.6263 21.7753 30.6838C21.6542 30.7413 21.553 30.8346 21.4851 30.9516L19.7843 33.8842L16.5302 26.8301C16.7302 26.6361 16.9664 26.4846 17.2249 26.3846C17.6825 26.3362 18.1451 26.3814 18.5852 26.5175C19.3661 26.6868 20.25 26.8796 20.9826 26.4484C21.7261 26.0125 22.0042 25.1328 22.2505 24.3567L22.2804 24.2638L25.4705 31.185L22.1639 30.6294Z" fill="#2A0C35"/>
</g>
<defs>
<clipPath id="clip0_102_16">
<rect width="28" height="36" fill="white"/>
</clipPath>
</defs>
</svg>
