<svg width="80" height="80" viewBox="0 0 80 80" fill="none" xmlns="http://www.w3.org/2000/svg">
<path d="M42.3203 31C49.5293 35.0663 54.6416 42.4097 55.6396 51.0088C51.726 53.2888 47.1762 54.5967 42.3203 54.5967C37.4641 54.5967 32.9138 53.2891 29 51.0088C29.998 42.4097 35.1113 35.0663 42.3203 31Z" fill="#F0C980"/>
<path d="M20.7616 9.42672C16.59 14.0072 14.0469 20.0967 14.0469 26.7812C14.0469 41.0216 25.5878 52.5625 39.8281 52.5625C54.0684 52.5625 65.6094 41.0216 65.6094 26.7812C65.6094 12.5409 54.0684 1 39.8281 1C33.1436 1 27.0541 3.54312 22.4738 7.71469" stroke="#2A0C35" stroke-width="2" stroke-miterlimit="22.9256"/>
<path d="M71.9416 69.9169C76.113 65.3364 78.6562 59.2469 78.6562 52.5625C78.6562 38.3222 67.1153 26.7812 52.875 26.7812C38.6347 26.7812 27.0938 38.3222 27.0938 52.5625C27.0938 66.8027 38.6347 78.3438 52.875 78.3438C59.5595 78.3438 65.6491 75.8005 70.2295 71.6291" stroke="#2A0C35" stroke-width="2" stroke-miterlimit="22.9256"/>
<path d="M26.7812 78.3438C41.0198 78.3438 52.5625 66.8011 52.5625 52.5625C52.5625 38.3239 41.0198 26.7812 26.7812 26.7812C12.5427 26.7812 1 38.3239 1 52.5625C1 66.8011 12.5427 78.3438 26.7812 78.3438Z" stroke="#2A0C35" stroke-width="2" stroke-miterlimit="22.9256"/>
<path d="M39.8281 46.8594C41.7698 46.8594 43.3438 45.2854 43.3438 43.3438C43.3438 41.4021 41.7698 39.8281 39.8281 39.8281C37.8865 39.8281 36.3125 41.4021 36.3125 43.3438C36.3125 45.2854 37.8865 46.8594 39.8281 46.8594Z" stroke="#2A0C35" stroke-width="2" stroke-miterlimit="22.9256"/>
<path d="M46.8592 8.41357V6.06982M51.5467 10.7575V8.41373" stroke="#2A0C35" stroke-width="2" stroke-miterlimit="22.9256"/>
</svg>
