<svg width="110" height="84" viewBox="0 0 110 84" fill="none" xmlns="http://www.w3.org/2000/svg">
<g clip-path="url(#clip0_590_2946)">
<path d="M96.9807 28.6991C91.9193 32.1126 86.0339 34.1136 81.0902 37.6448C76.1465 41.2937 72.2622 47.4145 74.1455 53.2999C75.3226 57.3019 78.8538 60.0092 80.6194 63.7758C82.8558 68.7195 81.561 74.958 77.7944 78.96C74.0278 82.8443 68.1424 84.4922 62.8456 83.5506C57.4311 82.6089 52.7228 79.1954 49.5447 74.8402C47.426 71.8976 46.0135 68.4841 43.8948 65.5414C41.8938 62.5987 38.9511 59.8915 35.3022 59.3029C28.3575 58.3613 22.3544 65.7768 15.292 65.306C10.8191 64.9529 7.05249 61.0685 6.11084 56.7134C5.16918 52.3582 6.69937 47.6499 9.64205 44.2364C12.5847 40.8229 16.7045 38.5865 21.0596 37.4094C24.0023 36.5855 27.0627 36.1146 30.0054 35.0553C32.948 33.9959 35.6553 32.2303 37.1855 29.523C40.7167 22.696 34.4782 14.1034 37.1855 7.041C38.7157 2.92125 43.3063 0.3317 47.6614 0.449407C52.0166 0.567114 56.254 2.92126 58.9613 6.33476C60.6092 8.33578 62.7279 16.5753 64.7289 17.2815C67.0831 17.9878 74.734 10.3368 76.8528 8.92431C81.6787 5.86393 87.211 3.50979 92.8609 3.86291C98.5108 4.33374 104.161 8.21807 105.22 13.7503C106.397 19.5179 102.042 25.2856 96.9807 28.6991ZM43.1885 80.1371C43.1885 79.7839 43.5417 79.4308 43.8948 79.4308H44.9542V78.3715C44.9542 78.0183 45.3073 77.6652 45.6604 77.6652C46.0135 77.6652 46.3666 78.0183 46.3666 78.3715V79.4308H47.426C47.7791 79.4308 48.1322 79.7839 48.1322 80.1371C48.1322 80.4902 47.7791 80.8433 47.426 80.8433H46.3666V81.9027C46.3666 82.2558 46.0135 82.6089 45.6604 82.6089C45.3073 82.6089 44.9542 82.2558 44.9542 81.9027V80.8433H43.8948C43.5417 80.8433 43.1885 80.6079 43.1885 80.1371Z" fill="#C2E9FF"/>
<path d="M10.701 9.86596C10.701 10.3368 10.2301 10.6899 9.75931 10.6899H8.46453V11.9847C8.46453 12.4555 7.9937 12.8086 7.52288 12.8086C7.05205 12.8086 6.69893 12.4555 6.69893 11.867V10.5722H5.40415C4.93332 10.5722 4.5802 10.1014 4.5802 9.63054C4.5802 9.15971 4.93332 8.80659 5.52186 8.80659H6.81663V7.51182C6.81663 7.04099 7.28746 6.68787 7.75829 6.68787C8.22912 6.68787 8.58224 7.15869 8.58224 7.62952V8.9243H9.87702C10.3478 8.9243 10.701 9.39513 10.701 9.86596Z" fill="#C2E9FF"/>
<path d="M95.8031 62.5987C68.7305 44.9427 41.7756 87.4349 14.703 69.6611C12.1134 68.0132 10.4655 64.3643 10.9364 62.1279C13.6436 49.6509 16.4686 37.0563 19.1759 24.5793C19.6467 22.4606 21.6477 22.1075 23.531 23.2846C44.6006 35.8792 65.6701 1.50877 86.7397 14.1034C88.7407 15.2805 90.624 18.5763 91.0948 20.9304C93.8021 34.5844 96.6271 48.2385 99.3343 61.8925C100.041 64.3643 98.3927 64.2466 95.8031 62.5987Z" fill="white"/>
<path d="M95.8032 62.5987C68.7306 44.9427 41.7756 87.4349 14.703 69.6611C12.2312 68.0132 10.4656 64.3643 11.0541 62.1279C11.5249 60.2446 11.8781 58.3613 12.3489 56.4779C11.8781 58.5967 13.526 62.2456 15.8801 63.7758C42.1288 80.8433 68.4951 39.2927 94.7438 56.3602C97.2156 57.8904 98.8635 58.0081 98.3927 55.654C98.8635 57.655 99.2167 59.7737 99.6875 61.7748C100.041 64.3643 98.3927 64.2466 95.8032 62.5987Z" fill="#E8F0FD"/>
<path d="M95.0969 12.2201H96.3917V13.5149C96.3917 13.9857 96.7448 14.3388 97.2156 14.4566C97.6865 14.4566 98.0396 14.1034 98.1573 13.6326V12.3378H99.4521C99.9229 12.3378 100.276 11.9847 100.394 11.5139C100.394 11.043 100.041 10.6899 99.5698 10.5722H98.275V9.27744C98.275 8.80661 97.9219 8.45349 97.451 8.33578C96.9802 8.33578 96.6271 8.68891 96.5094 9.15973V10.4545H95.2146C94.7438 10.4545 94.3907 10.8076 94.273 11.2785C94.273 11.7493 94.6261 12.2201 95.0969 12.2201ZM2.57921 66.8362L3.05004 68.0132C3.28545 68.4841 3.75628 68.6018 4.22711 68.4841C4.69794 68.2487 4.93335 67.7778 4.69794 67.307L4.22711 66.1299L5.40418 65.6591C5.87501 65.4237 5.99271 64.9529 5.87501 64.482C5.63959 64.0112 5.16877 63.8935 4.69794 64.0112L3.52087 64.482L3.05004 63.305C2.81463 62.8341 2.3438 62.7164 1.87297 62.8341C1.40214 63.0695 1.28443 63.5404 1.40214 64.0112L1.87297 65.1883L0.6959 65.6591C0.225072 65.8945 0.107365 66.3653 0.225072 66.8362C0.460486 67.307 0.931314 67.5424 1.40214 67.307L2.57921 66.8362ZM100.747 61.7748L92.5074 20.8127C92.0365 18.2232 89.8001 14.5743 87.5637 13.1618C79.795 8.5712 71.9086 9.86598 63.6691 13.3972C63.5514 13.3972 63.4337 13.5149 63.316 13.5149C56.489 16.4576 49.7797 20.695 43.1881 23.0492C43.0704 23.0492 43.0704 23.0492 43.0704 23.1669C36.4788 25.521 30.2404 25.9918 24.2373 22.3429C22.8248 21.519 21.2946 21.2836 20.1176 21.7544C19.0582 22.2252 18.3519 23.1669 18.1165 24.3439L9.87705 62.0102C9.28851 64.7174 11.2895 68.9549 14.1145 70.7205C15.4093 71.5445 16.7041 72.2507 17.9988 72.9569H12.9374C12.2312 72.9569 11.7604 73.4278 11.7604 74.134C11.7604 74.8402 12.2312 75.3111 12.9374 75.3111C40.4809 75.3111 24.4727 75.3111 95.3323 75.4288C95.9209 75.4288 96.5094 74.958 96.5094 74.2517C96.5094 73.5455 95.9209 73.0746 95.3323 73.0746H42.1288C46.7193 71.5445 51.1922 69.4257 55.6651 67.4247C66.8472 62.2456 77.3232 57.4196 88.1522 60.5977C90.6241 61.3039 92.9782 62.481 95.0969 63.8935C96.5094 64.8351 97.6865 65.306 98.6281 65.306C99.0989 65.306 99.4521 65.1883 99.8052 64.9529C100.511 64.2466 101.1 63.4227 100.747 61.7748ZM15.4093 68.7195C13.2905 67.307 11.8781 64.1289 12.2312 62.481L20.4707 24.9325C20.5884 24.4616 20.8238 24.1085 21.0592 23.9908C21.1769 23.9908 21.4123 23.8731 21.53 23.8731C22.0009 23.8731 22.4717 23.9908 23.0602 24.3439C24.1196 24.9325 25.179 25.521 26.2383 25.8741L18.8228 70.6028C17.6457 70.132 16.5863 69.5434 15.4093 68.7195ZM89.0939 58.2436C81.0898 55.7717 73.0857 57.655 65.1993 60.5977C61.6681 62.0102 58.1369 63.5404 54.7234 65.1883C43.8944 70.132 32.3591 75.6642 21.0592 71.6622L28.4748 26.6981H28.5925C33.7716 27.9929 38.9507 27.1689 44.0121 25.2856H44.1298C51.1922 22.696 58.2546 18.2232 65.1993 15.2805C65.317 15.1628 65.4348 15.1628 65.6702 15.0451C70.7316 12.9264 75.9107 11.7493 81.2075 13.0441C81.4429 13.1618 81.6783 13.1618 82.0314 13.2795L89.447 58.2436H89.0939ZM96.5094 61.6571C94.9792 60.5977 93.449 59.8915 91.9188 59.1852L84.5033 14.2211C85.0918 14.4565 85.6804 14.8097 86.3866 15.1628C87.9168 16.1044 89.8001 19.0471 90.2709 21.1658C98.8635 64.0112 98.5104 62.1279 98.5104 62.481C98.1573 62.5987 97.4511 62.3633 96.5094 61.6571Z" fill="#0084FE"/>
<path d="M33.1831 32.4657C32.4768 32.348 32.006 32.8188 31.8883 33.5251L27.7686 66.7185C27.6509 67.4247 28.2394 68.0132 28.9456 68.0132C29.5342 68.0132 30.005 67.5424 30.1227 66.9539L34.2425 33.7605C34.3602 33.0543 33.8893 32.4657 33.1831 32.4657ZM41.658 30.9355C40.9518 30.9355 40.4809 31.4064 40.3632 31.9949L38.9507 50.7103C38.9507 51.4166 39.4216 51.8874 40.0101 52.0051C40.7163 52.0051 41.1872 51.5343 41.3049 50.9457L42.7174 32.2303C42.7174 31.6418 42.2465 31.0532 41.658 30.9355ZM39.5393 58.5967C38.833 58.5967 38.3622 59.0675 38.2445 59.6561L37.7737 65.4237C37.7737 66.1299 38.2445 66.6008 38.833 66.7185H38.9507C39.5393 66.7185 40.1278 66.2476 40.1278 65.6591L40.5986 60.0092C40.5986 59.1852 40.1278 58.7144 39.5393 58.5967ZM50.0152 27.522C49.309 27.522 48.8381 27.9929 48.8381 28.6991L48.7204 33.0543C48.7204 33.7605 49.1912 34.2313 49.8975 34.2313C50.486 34.2313 51.0746 33.7605 51.0746 33.0543L51.1923 28.6991C51.1923 28.1106 50.7214 27.522 50.0152 27.522ZM49.6621 37.998C49.0735 37.998 48.485 38.4688 48.485 39.175L47.7788 61.7748C47.7788 62.481 48.2496 62.9519 48.9558 62.9519C49.5444 62.9519 50.1329 62.481 50.1329 61.7748L50.8391 39.175C50.8391 38.5865 50.3683 37.998 49.6621 37.998ZM70.967 44.3541C71.6733 44.3541 72.1441 43.7656 72.0264 43.0594L70.1431 19.9888C70.1431 19.4002 69.5546 18.8117 68.8483 18.9294C68.1421 18.9294 67.6712 19.518 67.7889 20.2242L69.6723 43.2948C69.79 43.8833 70.2608 44.3541 70.967 44.3541ZM71.3202 48.0031C70.6139 48.0031 70.1431 48.5916 70.2608 49.2978L70.4962 52.4759C70.4962 53.0645 71.0847 53.5353 71.6733 53.5353H71.791C72.4972 53.5353 72.9681 52.9468 72.8503 52.2405L72.6149 49.0624C72.4972 48.4739 71.9087 47.8853 71.3202 48.0031ZM77.3232 17.3992C76.7347 17.5169 76.2639 18.1055 76.2639 18.694L80.3836 51.1811C80.5013 51.7697 80.9721 52.2405 81.5607 52.2405C82.2669 52.2405 82.8554 51.652 82.7377 50.9457L78.618 18.4586C78.618 17.7524 78.0295 17.3992 77.3232 17.3992ZM19.0582 48.5916C20.1176 49.2978 21.177 48.827 21.4124 47.7676C21.6478 46.7083 20.9416 45.4135 19.7645 44.7073C18.7051 44.001 17.6458 44.2364 17.4103 45.2958C17.1749 46.4729 17.8812 48.0031 19.0582 48.5916ZM90.8595 36.4678C90.271 36.1146 89.8002 36.3501 89.9179 36.9386C90.3887 39.4104 90.7418 41.7646 91.2126 44.2364C91.3304 44.9427 92.0366 45.7666 92.6251 46.1197C93.3314 46.5906 93.8022 46.3552 93.6845 45.7666L92.272 38.3511C92.1543 37.7625 91.4481 36.9386 90.8595 36.4678ZM90.3887 34.2313C90.9772 34.5845 91.4481 34.4667 91.3303 33.7605C91.2126 33.2897 91.0949 32.8188 91.0949 32.348C90.9772 31.6418 90.3887 30.8178 89.6824 30.347C89.0939 29.9939 88.6231 30.2293 88.7408 30.9355C88.8585 31.4064 88.8585 31.8772 88.9762 32.348C89.0939 32.9366 89.8002 33.7605 90.3887 34.2313ZM5.75735 72.9569H2.22614C1.5199 72.9569 1.04907 73.4278 1.04907 74.134C1.04907 74.8403 1.5199 75.3111 2.22614 75.3111H5.75735C6.46359 75.3111 6.93442 74.8403 6.93442 74.134C6.93442 73.4278 6.46359 72.9569 5.75735 72.9569ZM108.28 72.9569H105.102C104.396 72.9569 103.925 73.4278 103.925 74.134C103.925 74.8403 104.396 75.3111 105.102 75.3111H108.28C108.986 75.3111 109.457 74.8403 109.457 74.134C109.457 73.5455 108.869 72.9569 108.28 72.9569Z" fill="#0084FE"/>
</g>
<defs>
<clipPath id="clip0_590_2946">
<rect width="109.682" height="84" fill="white"/>
</clipPath>
</defs>
</svg>
