<svg width="48" height="48" viewBox="0 0 48 48" fill="none" xmlns="http://www.w3.org/2000/svg">
<g clip-path="url(#clip0_590_3449)">
<path d="M46.5771 6.08682V5.23986C46.5771 4.32405 45.832 3.57904 44.9163 3.57904H28.6464V2.78923C28.6464 1.25122 27.3952 0 25.8572 0H22.1433C20.6053 0 19.3541 1.25122 19.3541 2.78923V3.57904H3.08406C2.16826 3.57904 1.42334 4.32405 1.42334 5.23986V6.08692C1.42334 6.75177 1.81694 7.32505 2.38255 7.59013V32.9191C1.81694 33.1842 1.42334 33.7574 1.42334 34.4223V35.2693C1.42334 36.1852 2.16835 36.9301 3.08406 36.9301H8.94631C9.13236 36.9301 9.3108 36.8562 9.44236 36.7246C9.57391 36.593 9.64782 36.4146 9.64782 36.2286C9.64782 36.0425 9.57391 35.8641 9.44236 35.7325C9.3108 35.6009 9.13236 35.527 8.94631 35.527H3.08406C3.01574 35.527 2.95024 35.4998 2.90193 35.4515C2.85362 35.4032 2.82645 35.3377 2.82637 35.2693V34.4223C2.82642 34.354 2.85358 34.2884 2.9019 34.2401C2.95021 34.1918 3.01573 34.1646 3.08406 34.1645H44.9162C44.9846 34.1646 45.0501 34.1918 45.0984 34.2401C45.1467 34.2884 45.1739 34.354 45.1739 34.4223V35.2693C45.1739 35.3377 45.1467 35.4032 45.0984 35.4515C45.0501 35.4998 44.9846 35.527 44.9162 35.527H11.9384C11.7524 35.527 11.5739 35.6009 11.4424 35.7325C11.3108 35.8641 11.2369 36.0425 11.2369 36.2286C11.2369 36.4146 11.3108 36.593 11.4424 36.7246C11.5739 36.8562 11.7524 36.9301 11.9384 36.9301H16.1839V38.2731C16.1839 38.9433 16.5473 39.5288 17.0863 39.8473L14.2879 47.0441C14.2219 47.2172 14.2271 47.4094 14.3022 47.5787C14.3774 47.748 14.5165 47.8807 14.6892 47.9479C14.8618 48.015 15.0541 48.0111 15.2239 47.9371C15.3937 47.863 15.5273 47.7248 15.5956 47.5525L18.4926 40.102H29.5075L32.4045 47.5525C32.4558 47.6843 32.5457 47.7975 32.6624 47.8774C32.7791 47.9572 32.9172 48 33.0585 48C33.1726 48 33.285 47.9721 33.3859 47.9189C33.4867 47.8657 33.5731 47.7886 33.6375 47.6944C33.7019 47.6003 33.7423 47.4918 33.7554 47.3785C33.7684 47.2652 33.7535 47.1504 33.7122 47.0441L30.8959 39.8012C31.3932 39.474 31.7227 38.9116 31.7227 38.2731V36.9301H44.9161C45.8319 36.9301 46.5769 36.1851 46.5769 35.2693V34.4223C46.5769 33.7574 46.1833 33.1842 45.6177 32.9191V7.59003C46.1835 7.32495 46.5771 6.75167 46.5771 6.08682ZM30.3198 38.2731C30.3197 38.3861 30.2748 38.4943 30.195 38.5741C30.1151 38.654 30.0069 38.6989 29.894 38.699H18.0129C17.9 38.6989 17.7917 38.654 17.7119 38.5741C17.6321 38.4943 17.5872 38.3861 17.587 38.2731V36.9301H30.3198V38.2731ZM20.7571 2.78923C20.7571 2.02486 21.379 1.40303 22.1433 1.40303H25.8572C26.6215 1.40303 27.2434 2.02486 27.2434 2.78923V3.57904H20.7571V2.78923ZM2.82637 5.23986C2.82642 5.17152 2.85358 5.106 2.9019 5.05767C2.95021 5.00934 3.01573 4.98215 3.08406 4.98208H44.9162C44.9846 4.98215 45.0501 5.00934 45.0984 5.05767C45.1467 5.106 45.1739 5.17152 45.1739 5.23986V6.08692C45.1739 6.15525 45.1467 6.22078 45.0984 6.26911C45.0501 6.31744 44.9846 6.34463 44.9162 6.3447H40.0666C39.8806 6.3447 39.7021 6.41861 39.5706 6.55017C39.439 6.68173 39.3651 6.86016 39.3651 7.04622C39.3651 7.23227 39.439 7.41071 39.5706 7.54227C39.7021 7.67383 39.8806 7.74774 40.0666 7.74774H44.2147V32.7616H3.78558V7.74764H37.0745C37.2606 7.74764 37.439 7.67373 37.5705 7.54217C37.7021 7.41061 37.776 7.23218 37.776 7.04612C37.776 6.86007 37.7021 6.68164 37.5705 6.55008C37.439 6.41852 37.2606 6.34461 37.0745 6.34461H3.08406C3.01573 6.34453 2.95021 6.31735 2.9019 6.26902C2.85358 6.22069 2.82642 6.15516 2.82637 6.08682V5.23986Z" fill="#2395FF"/>
<path d="M22.1924 41.1752H20.3091C20.1069 41.1743 19.9092 41.235 19.7423 41.3492C19.5754 41.4634 19.4471 41.6256 19.3746 41.8144L17.3412 47.0441C17.3071 47.1301 17.2903 47.222 17.2919 47.3145C17.2935 47.407 17.3133 47.4982 17.3503 47.583C17.3873 47.6678 17.4407 47.7445 17.5074 47.8085C17.5741 47.8726 17.6529 47.9229 17.7391 47.9564C17.8253 47.9899 17.9173 48.0061 18.0098 48.0039C18.1023 48.0017 18.1934 47.9813 18.278 47.9437C18.3625 47.9062 18.4388 47.8523 18.5024 47.7852C18.5661 47.718 18.6158 47.639 18.6488 47.5525L20.583 42.5781H21.792V47.2982C21.792 47.4843 21.866 47.6627 21.9975 47.7943C22.1291 47.9258 22.3075 47.9997 22.4936 47.9997C22.6796 47.9997 22.8581 47.9258 22.9896 47.7943C23.1212 47.6627 23.1951 47.4843 23.1951 47.2982V42.1777C23.195 41.625 22.7453 41.1752 22.1924 41.1752ZM28.6259 41.8143C28.5534 41.6256 28.4252 41.4633 28.2583 41.3492C28.0913 41.235 27.8936 41.1743 27.6914 41.1752H25.8082C25.2553 41.1752 24.8055 41.625 24.8055 42.1778V47.2983C24.8055 47.4844 24.8794 47.6628 25.011 47.7944C25.1425 47.9259 25.3209 47.9998 25.507 47.9998C25.6931 47.9998 25.8715 47.9259 26.003 47.7944C26.1346 47.6628 26.2085 47.4844 26.2085 47.2983V42.5782H27.4176L29.3518 47.5526C29.403 47.6844 29.4929 47.7976 29.6096 47.8775C29.7263 47.9573 29.8644 48.0001 30.0058 48.0001C30.1199 48.0001 30.2322 47.9722 30.3331 47.919C30.434 47.8658 30.5204 47.7887 30.5847 47.6945C30.6491 47.6004 30.6896 47.4919 30.7026 47.3786C30.7156 47.2653 30.7008 47.1505 30.6594 47.0442L28.6259 41.8143ZM30.3959 16.1297H28.9542V15.0519C28.9542 12.7428 27.0756 10.8643 24.7665 10.8643H16.0724C13.7633 10.8643 11.8848 12.7428 11.8848 15.0519V23.7703C11.8848 24.254 12.1525 24.691 12.5834 24.9106C12.7636 25.0028 12.9631 25.051 13.1655 25.0512C13.4302 25.0512 13.6929 24.9685 13.9165 24.806L15.0944 23.951H17.5143V25.0288C17.5143 27.338 19.3929 29.2166 21.702 29.2166H31.374L32.5518 30.0716C32.7699 30.2307 33.0329 30.3165 33.3029 30.3167C33.5012 30.3167 33.7004 30.2702 33.8851 30.1762C34.0957 30.0695 34.2726 29.9064 34.396 29.705C34.5193 29.5037 34.5843 29.272 34.5837 29.0359V20.3175C34.5837 18.0084 32.7051 16.1297 30.3959 16.1297ZM33.1807 28.7945L32.0138 27.9475C31.894 27.8605 31.7497 27.8137 31.6017 27.8136H21.7019C20.1664 27.8136 18.9172 26.5645 18.9172 25.0289V23.9511H20.9985C21.1845 23.9511 21.363 23.8772 21.4945 23.7456C21.6261 23.6141 21.7 23.4356 21.7 23.2496C21.7 23.0635 21.6261 22.8851 21.4945 22.7535C21.363 22.622 21.1845 22.5481 20.9985 22.5481H14.8666C14.7185 22.5481 14.5743 22.5949 14.4545 22.6819L13.2876 23.5289V15.0519C13.2876 13.5165 14.5368 12.2673 16.0723 12.2673H24.7663C26.3018 12.2673 27.5509 13.5165 27.5509 15.0519V19.7633C27.5509 21.2989 26.3018 22.5481 24.7663 22.5481H23.9905C23.8045 22.5481 23.626 22.622 23.4945 22.7535C23.3629 22.8851 23.289 23.0635 23.289 23.2496C23.289 23.4356 23.3629 23.6141 23.4945 23.7456C23.626 23.8772 23.8045 23.9511 23.9905 23.9511H24.7663C27.0754 23.9511 28.954 22.0725 28.954 19.7633V17.5328H30.3957C31.9313 17.5328 33.1805 18.7819 33.1805 20.3174V28.7945H33.1807Z" fill="#2395FF"/>
</g>
<defs>
<clipPath id="clip0_590_3449">
<rect width="48" height="48" fill="white"/>
</clipPath>
</defs>
</svg>
