<svg width="48" height="48" viewBox="0 0 48 48" fill="none" xmlns="http://www.w3.org/2000/svg">
<g clip-path="url(#clip0_590_3445)">
<path d="M14.2122 38.5983C13.8771 38.4008 13.445 38.5119 13.2473 38.8471C12.4408 40.2144 12.0152 41.7728 12.0147 43.3602V47.1177C12.0147 47.5069 12.3301 47.8223 12.7193 47.8223C13.1084 47.8223 13.4238 47.5069 13.4238 47.1177V43.3602C13.4242 42.0246 13.7824 40.7135 14.461 39.5631C14.508 39.4834 14.5389 39.3952 14.5518 39.3036C14.5648 39.212 14.5596 39.1187 14.5365 39.0291C14.5134 38.9395 14.4728 38.8554 14.4172 38.7814C14.3616 38.7075 14.2919 38.6453 14.2122 38.5983ZM31.2287 35.5442L29.524 34.6238C30.5403 33.8148 31.4223 32.8503 32.1375 31.766L32.2254 31.8154C32.384 31.9048 32.5711 31.9293 32.7474 31.8838C32.9237 31.8382 33.0755 31.7262 33.171 31.5711L33.9948 30.2344C36.0028 26.9761 36.7689 23.0988 36.1523 19.3163C36.138 19.2244 36.1057 19.1362 36.0572 19.0569C36.0088 18.9775 35.9451 18.9085 35.8698 18.8539C35.7945 18.7993 35.7092 18.7601 35.6187 18.7386C35.5282 18.7171 35.4344 18.7138 35.3426 18.7288C35.2508 18.7437 35.1629 18.7767 35.0839 18.8258C35.0049 18.8749 34.9365 18.9392 34.8824 19.0149C34.8284 19.0906 34.7899 19.1762 34.7692 19.2669C34.7484 19.3575 34.7458 19.4514 34.7615 19.5431C35.3237 22.991 34.6254 26.5254 32.7952 29.4952L32.3268 30.2552L32.2398 30.2062C32.0782 30.1152 31.8872 30.0915 31.7083 30.1404C31.5294 30.1893 31.3769 30.3068 31.2841 30.4674C30.5073 31.811 29.4272 32.9921 28.1593 33.8867L27.0739 33.3006V32.491C29.7184 31.3103 31.567 28.6573 31.567 25.579V18.5007C31.567 17.9796 31.2762 17.5142 30.8079 17.2857C30.3397 17.057 29.7938 17.1145 29.3832 17.4351L28.3053 18.2766C27.3735 19.004 26.2837 19.5087 25.1351 19.7576L26.9108 17.6248C27.028 17.4809 27.0837 17.2967 27.0658 17.112C27.0479 16.9273 26.9579 16.7571 26.8153 16.6384C26.6727 16.5196 26.489 16.4619 26.3041 16.4778C26.1193 16.4937 25.9481 16.5819 25.8279 16.7232L23.1529 19.9361H20.6065L22.4907 17.6185C22.6072 17.4734 22.6616 17.2881 22.6419 17.103C22.6223 16.9179 22.5302 16.7481 22.3858 16.6307C22.2414 16.5133 22.0564 16.4578 21.8712 16.4763C21.686 16.4948 21.5157 16.5859 21.3974 16.7295L18.7905 19.9361H17.4677C16.8971 19.9361 16.433 20.4002 16.433 20.9708V25.579C16.433 28.6207 18.2378 31.2472 20.8321 32.4485V33.3006L19.7468 33.8867C18.4787 32.992 17.3987 31.811 16.622 30.4674C16.5292 30.3068 16.3767 30.1892 16.1978 30.1403C16.0188 30.0914 15.8278 30.1151 15.6662 30.2062L15.5792 30.2552L15.1108 29.4952C13.6223 27.0826 12.8735 24.2867 12.9571 21.4531C13.0407 18.6195 13.953 15.8726 15.5811 13.552C17.5212 10.7837 20.5726 9.19604 23.953 9.19604C27.3334 9.19604 30.3848 10.7837 32.325 13.552C33.0052 14.5238 33.5639 15.5753 33.9885 16.6829C34.0555 16.8574 34.189 16.998 34.3597 17.0741C34.5304 17.1501 34.7243 17.1552 34.8988 17.0883C34.9851 17.0552 35.0641 17.0053 35.1313 16.9417C35.1984 16.878 35.2523 16.8017 35.2899 16.7172C35.3276 16.6327 35.3482 16.5416 35.3506 16.4491C35.3531 16.3566 35.3373 16.2645 35.3041 16.1782C34.8383 14.9629 34.2253 13.8094 33.479 12.7432C31.2715 9.59342 27.7994 7.78688 23.9531 7.78688C20.1068 7.78688 16.6348 9.59333 14.4273 12.7432C12.641 15.2891 11.6401 18.3028 11.5484 21.4115C11.4567 24.5202 12.2782 27.5877 13.9112 30.2345L14.735 31.5712C14.8305 31.7263 14.9823 31.8383 15.1586 31.8839C15.3349 31.9294 15.522 31.9049 15.6807 31.8155L15.7685 31.7661C16.4837 32.8504 17.3658 33.8149 18.3821 34.6238L16.6774 35.5442C16.2336 35.784 15.811 36.0609 15.4139 36.3721C15.2986 36.4626 15.2143 36.5868 15.1729 36.7274C15.1315 36.8681 15.135 37.0181 15.1829 37.1567C15.2308 37.2953 15.3208 37.4154 15.4402 37.5004C15.5597 37.5855 15.7027 37.6311 15.8493 37.631C16.0015 37.631 16.1547 37.5821 16.2837 37.4808C16.6178 37.2189 16.9735 36.9858 17.3469 36.7841L20.8468 34.8943C20.9974 36.4759 22.3329 37.7172 23.9533 37.7172C25.5737 37.7172 26.9092 36.4759 27.0598 34.8943L30.5597 36.7841C31.7464 37.4238 32.7377 38.373 33.4283 39.5308C34.119 40.6886 34.4832 42.0119 34.4823 43.36V47.1176C34.4823 47.5068 34.7978 47.8222 35.1869 47.8222C35.576 47.8222 35.8915 47.5068 35.8915 47.1176V43.36C35.8923 41.7577 35.4593 40.185 34.6383 38.8089C33.8174 37.4328 32.6392 36.3046 31.2287 35.5442ZM17.8419 25.5792V21.3456H23.483C25.5346 21.3456 27.5551 20.6503 29.1724 19.3877L30.1578 18.6184V25.5793C30.1578 28.9748 27.3953 31.7372 23.9999 31.7372C20.6045 31.7372 17.8419 28.9746 17.8419 25.5792ZM23.9529 36.3082C23.0091 36.3082 22.2411 35.5403 22.2411 34.5964V32.9377C22.8171 33.076 23.4075 33.146 23.9999 33.1463C24.572 33.1463 25.1286 33.0803 25.6648 32.9594V34.5964C25.6647 35.5403 24.8968 36.3082 23.9529 36.3082ZM35.1867 12.935C35.3596 12.9352 35.5265 12.8716 35.6554 12.7563L38.3788 10.3283C39.4003 11.2266 40.7382 11.7731 42.2023 11.7731C45.3991 11.7731 47.9999 9.17227 47.9999 5.97544C47.9999 2.7787 45.3991 0.177856 42.2023 0.177856C39.0054 0.177856 36.4047 2.7787 36.4047 5.97544C36.4047 7.2016 36.7883 8.33936 37.4405 9.27702L34.7176 11.7046C34.6111 11.7997 34.5359 11.9249 34.5021 12.0636C34.4683 12.2023 34.4774 12.348 34.5283 12.4814C34.5791 12.6148 34.6693 12.7297 34.7869 12.8107C34.9045 12.8917 35.0439 12.935 35.1867 12.935ZM42.2023 1.58702C44.6221 1.58702 46.5908 3.55562 46.5908 5.97544C46.5908 8.39526 44.6221 10.364 42.2023 10.364C39.7824 10.364 37.8138 8.39526 37.8138 5.97544C37.8138 3.55562 39.7824 1.58702 42.2023 1.58702Z" fill="#2492FF"/>
<path d="M42.2024 31.9022C40.7384 31.9022 39.4004 32.4488 38.379 33.3471L35.6555 30.919C35.5867 30.8561 35.5061 30.8075 35.4183 30.7761C35.3305 30.7446 35.2374 30.7308 35.1443 30.7356C35.0512 30.7404 34.96 30.7636 34.8759 30.8039C34.7918 30.8442 34.7166 30.9008 34.6545 30.9704C34.5925 31.0399 34.5449 31.1211 34.5144 31.2093C34.484 31.2974 34.4714 31.3907 34.4772 31.4837C34.4831 31.5768 34.5074 31.6677 34.5487 31.7513C34.59 31.8349 34.6475 31.9095 34.7178 31.9707L37.4407 34.3983C36.7885 35.336 36.4048 36.4736 36.4048 37.6999C36.4048 40.8967 39.0057 43.4976 42.2024 43.4976C45.3993 43.4976 48.0001 40.8967 48.0001 37.6999C48.0001 34.503 45.3993 31.9022 42.2024 31.9022ZM42.2024 42.0884C39.7826 42.0884 37.814 40.1197 37.814 37.6999C37.814 35.2801 39.7827 33.3114 42.2024 33.3114C44.6222 33.3114 46.5909 35.2801 46.5909 37.6999C46.5909 40.1197 44.6222 42.0884 42.2024 42.0884ZM43.0297 18.2865C41.3128 18.2865 39.8766 19.5114 39.5489 21.1332H38.669C38.2799 21.1332 37.9644 21.4485 37.9644 21.8378C37.9644 22.227 38.2799 22.5423 38.669 22.5423H39.5489C39.8766 24.1641 41.3128 25.3889 43.0297 25.3889C44.9879 25.3889 46.5809 23.7959 46.5809 21.8378C46.5809 19.8796 44.9878 18.2865 43.0297 18.2865ZM43.0297 23.9797C41.8485 23.9797 40.8876 23.0187 40.8876 21.8377C40.8876 20.6565 41.8485 19.6955 43.0297 19.6955C44.2109 19.6955 45.1717 20.6565 45.1717 21.8377C45.1717 23.0188 44.2108 23.9797 43.0297 23.9797ZM5.79768 11.7731C7.26171 11.7731 8.59966 11.2266 9.62112 10.3283L12.3446 12.7563C12.4734 12.8716 12.6403 12.9352 12.8133 12.935C12.9561 12.9351 13.0955 12.8917 13.2131 12.8107C13.3308 12.7297 13.421 12.6149 13.4719 12.4815C13.5227 12.348 13.5319 12.2023 13.498 12.0635C13.4642 11.9248 13.389 11.7996 13.2824 11.7045L10.5595 9.27702C11.2116 8.33936 11.5954 7.2017 11.5954 5.97554C11.5965 5.21065 11.4454 4.45318 11.1509 3.74727C11.1153 3.66186 11.0633 3.5843 10.9977 3.51901C10.9321 3.45373 10.8543 3.40199 10.7688 3.36677C10.6832 3.33154 10.5916 3.31351 10.499 3.31371C10.4065 3.31391 10.3149 3.33233 10.2295 3.36792C10.1441 3.40352 10.0665 3.45558 10.0012 3.52115C9.93596 3.58672 9.88423 3.6645 9.849 3.75006C9.81378 3.83562 9.79575 3.92728 9.79595 4.01981C9.79614 4.11234 9.81456 4.20392 9.85016 4.28933C10.073 4.82352 10.1872 5.39674 10.1862 5.97554C10.1862 8.39535 8.2175 10.364 5.79777 10.364C3.37786 10.364 1.40916 8.39535 1.40916 5.97554C1.40916 3.55563 3.37786 1.58693 5.79768 1.58693C6.63451 1.58628 7.45393 1.82587 8.1586 2.27723C8.23652 2.32713 8.32351 2.36118 8.41459 2.37745C8.50568 2.39373 8.59908 2.3919 8.68946 2.37207C8.77984 2.35224 8.86542 2.3148 8.94133 2.26189C9.01724 2.20898 9.08198 2.14163 9.13186 2.0637C9.23257 1.90632 9.26665 1.71539 9.22661 1.53289C9.18656 1.35039 9.07567 1.19127 8.91832 1.09053C7.98691 0.493882 6.90381 0.177117 5.79768 0.177858C2.60085 0.177764 0 2.77871 0 5.97554C0 9.17227 2.60085 11.7731 5.79768 11.7731ZM13.2823 31.9708C13.3526 31.9096 13.4101 31.835 13.4514 31.7514C13.4927 31.6678 13.517 31.5769 13.5229 31.4838C13.5287 31.3908 13.5161 31.2975 13.4857 31.2094C13.4552 31.1212 13.4076 31.04 13.3456 30.9704C13.2835 30.9009 13.2083 30.8443 13.1242 30.804C13.0401 30.7637 12.9489 30.7405 12.8558 30.7357C12.7627 30.7309 12.6696 30.7447 12.5818 30.7761C12.494 30.8076 12.4134 30.8562 12.3446 30.9191L9.62112 33.3472C8.59966 32.4489 7.26171 31.9023 5.79768 31.9023C2.60085 31.9022 0 34.503 0 37.6999C0 40.8967 2.60085 43.4976 5.79768 43.4976C8.99451 43.4976 11.5953 40.8967 11.5953 37.6999C11.5953 36.4737 11.2116 35.336 10.5594 34.3983L13.2823 31.9708ZM5.79768 42.0884C3.37786 42.0884 1.40916 40.1197 1.40916 37.6999C1.40916 35.2801 3.37786 33.3114 5.79768 33.3114C8.2175 33.3114 10.1861 35.2801 10.1861 37.6999C10.1861 40.1197 8.2175 42.0884 5.79768 42.0884ZM8.45123 21.1332C8.12346 19.5114 6.68733 18.2865 4.97041 18.2865C3.01223 18.2865 1.41922 19.8796 1.41922 21.8378C1.41922 23.7959 3.01232 25.3889 4.97041 25.3889C6.68733 25.3889 8.12346 24.1641 8.45123 22.5423H9.33111C9.72023 22.5423 10.0357 22.227 10.0357 21.8378C10.0357 21.4485 9.72023 21.1332 9.33111 21.1332H8.45123ZM4.97041 23.9797C3.78924 23.9797 2.82838 23.0187 2.82838 21.8377C2.82838 20.6565 3.78934 19.6955 4.97041 19.6955C6.15147 19.6955 7.11252 20.6565 7.11252 21.8377C7.11243 23.0188 6.15147 23.9797 4.97041 23.9797Z" fill="#2492FF"/>
</g>
<defs>
<clipPath id="clip0_590_3445">
<rect width="48" height="48" fill="white"/>
</clipPath>
</defs>
</svg>
