<svg width="48" height="48" viewBox="0 0 48 48" fill="none" xmlns="http://www.w3.org/2000/svg">
<g clip-path="url(#clip0_590_3460)">
<path d="M9.28924 31.3905C8.21434 32.3903 7.35104 33.5684 6.72312 34.892L6.39144 35.5914L0.995705 42.4024C0.938192 42.475 0.895543 42.5582 0.870193 42.6473C0.844842 42.7364 0.837287 42.8296 0.847958 42.9216C0.85863 43.0136 0.887318 43.1026 0.932387 43.1835C0.977455 43.2644 1.03802 43.3357 1.11062 43.3932C1.18323 43.4507 1.26645 43.4934 1.35554 43.5187C1.44462 43.5441 1.53783 43.5516 1.62984 43.5409C1.72184 43.5303 1.81085 43.5016 1.89177 43.4565C1.97268 43.4114 2.04393 43.3509 2.10145 43.2783L7.54702 36.4043C7.58022 36.3625 7.60843 36.3168 7.63138 36.2687L7.99767 35.4966C8.54624 34.3383 9.3107 33.2952 10.2501 32.4232C10.3185 32.3603 10.3739 32.2845 10.4129 32.2001C10.452 32.1157 10.474 32.0244 10.4776 31.9315C10.4813 31.8386 10.4665 31.7459 10.4342 31.6587C10.4018 31.5715 10.3526 31.4915 10.2892 31.4235C10.2259 31.3554 10.1497 31.3005 10.0651 31.262C9.98046 31.2234 9.88904 31.202 9.7961 31.199C9.70316 31.1959 9.61053 31.2112 9.52355 31.2441C9.43656 31.277 9.35693 31.3267 9.28924 31.3905ZM46.5152 26.6152C45.5486 25.4747 43.8346 25.3333 42.6943 26.2998L42.3298 26.6088C42.242 26.1538 42.0383 25.7292 41.7383 25.3759C40.7719 24.2357 39.0578 24.0942 37.9175 25.0605L37.594 25.3347C37.5005 24.8941 37.2987 24.4839 37.007 24.1408C36.0405 23.0004 34.3266 22.8591 33.1862 23.8254L27.7649 28.4197C27.4804 28.3389 27.186 28.2979 26.8902 28.2978H17.1497C15.3429 28.2978 13.5353 28.7312 11.9226 29.551C11.7575 29.6367 11.633 29.7842 11.5762 29.9613C11.5193 30.1384 11.5347 30.3308 11.6189 30.4966C11.7032 30.6624 11.8496 30.7882 12.0262 30.8466C12.2028 30.905 12.3953 30.8913 12.5618 30.8084C13.9776 30.0888 15.564 29.7084 17.1497 29.7084H26.8903C27.8861 29.7084 28.6962 30.5186 28.6962 31.5144C28.697 31.7551 28.6493 31.9935 28.556 32.2154C28.4626 32.4372 28.3256 32.638 28.153 32.8058C27.8028 33.1483 27.343 33.3282 26.8509 33.32L26.8353 33.3198H20.5487C20.159 33.3198 19.8433 33.6355 19.8433 34.0251C19.8433 34.4148 20.159 34.7305 20.5487 34.7305H26.8279C26.8496 34.7309 26.8714 34.7311 26.8931 34.7311C27.7379 34.7311 28.5331 34.4071 29.1393 33.8143C29.2273 33.7279 29.3103 33.6366 29.388 33.5409H35.3476C35.9831 33.5407 36.5979 33.3151 37.0829 32.9044L43.6064 27.3759C44.1534 26.9124 44.9754 26.9803 45.439 27.5271C45.9026 28.0742 45.8347 28.8964 45.2878 29.3599L34.9897 38.0874C34.0319 38.9004 32.856 39.4134 31.6085 39.5624L30.3379 39.7153C30.2454 39.7257 30.1559 39.7544 30.0745 39.7995C29.9931 39.8447 29.9215 39.9055 29.8637 39.9785C29.806 40.0515 29.7632 40.1352 29.738 40.2248C29.7127 40.3144 29.7054 40.4081 29.7166 40.5005C29.7277 40.5929 29.757 40.6822 29.8028 40.7633C29.8486 40.8443 29.91 40.9155 29.9834 40.9727C30.0569 41.0299 30.1409 41.072 30.2307 41.0965C30.3205 41.1211 30.4142 41.1276 30.5065 41.1158L31.7771 40.9629C33.2988 40.7812 34.7334 40.1554 35.9016 39.1635L46.1998 30.436C47.3401 29.4697 47.4816 27.7556 46.5152 26.6152ZM34.0982 24.9015C34.645 24.4379 35.4673 24.5059 35.931 25.0527C36.1369 25.2939 36.2472 25.6024 36.2409 25.9195C36.2345 26.2367 36.1119 26.5404 35.8965 26.7732L30.1024 31.6836C30.1053 31.6275 30.1069 31.571 30.1069 31.5144C30.1069 30.5842 29.7095 29.7454 29.0762 29.1575L34.0982 24.9015ZM31.7571 32.1303L38.8295 26.1366C39.3767 25.673 40.1988 25.741 40.6622 26.2879C41.1258 26.8349 41.0579 27.6571 40.511 28.1206L36.171 31.8283C35.9408 32.0232 35.6491 32.1301 35.3476 32.1303H31.7571ZM27.3416 40.0757L20.1091 40.9458C19.9307 40.9672 19.7673 41.056 19.6521 41.1938L14.9337 46.8424C14.8138 46.9859 14.7558 47.1713 14.7725 47.3576C14.7892 47.5439 14.8793 47.7159 15.0228 47.8359C15.1664 47.9558 15.3517 48.0138 15.538 47.9971C15.7243 47.9804 15.8964 47.8903 16.0163 47.7468L20.5553 42.3128L27.5101 41.4763C27.6021 41.4652 27.6909 41.4361 27.7717 41.3907C27.8524 41.3453 27.9234 41.2844 27.9806 41.2116C28.0378 41.1388 28.0801 41.0553 28.1051 40.9662C28.1301 40.877 28.1372 40.7837 28.1262 40.6918C28.0796 40.3051 27.7271 40.0295 27.3416 40.0757Z" fill="#2395FF"/>
<path d="M21.741 20.1821C21.741 20.1821 17.6192 13.7656 17.6132 13.7573C16.9155 12.7677 16.4522 11.6127 16.2732 10.4172C16.2157 10.0319 15.8562 9.76609 15.4714 9.82411C15.3797 9.83781 15.2917 9.86942 15.2124 9.91714C15.133 9.96486 15.0638 10.0277 15.0087 10.1022C14.9536 10.1767 14.9137 10.2613 14.8914 10.3511C14.869 10.441 14.8645 10.5344 14.8782 10.626C15.0887 12.0327 15.6325 13.3917 16.4515 14.5573L20.4423 20.7703V21.7989C20.4423 22.0967 20.5473 22.3704 20.7219 22.5854V25.0097C20.7219 26.1443 21.645 27.0675 22.7797 27.0675H25.268C26.4026 27.0675 27.3258 26.1444 27.3258 25.0097V22.5854C27.5068 22.3632 27.6055 22.0854 27.6054 21.7989V20.7703L31.5962 14.5573C32.6926 12.9966 33.2722 11.1607 33.2722 9.24717C33.2722 6.18978 31.7633 3.33345 29.2359 1.60628C26.6539 -0.158038 23.4197 -0.485961 20.3627 0.706394C18.1482 1.57017 16.3774 3.32922 15.5045 5.53261C15.2652 6.13645 15.0822 6.75591 14.9605 7.37376C14.9426 7.46464 14.9428 7.55815 14.961 7.64896C14.9792 7.73978 15.0152 7.82611 15.0667 7.90304C15.1183 7.97996 15.1846 8.04597 15.2617 8.0973C15.3388 8.14863 15.4252 8.18426 15.5161 8.20217C15.607 8.22017 15.7005 8.22006 15.7914 8.20187C15.8822 8.18367 15.9686 8.14775 16.0455 8.09614C16.1225 8.04454 16.1885 7.97827 16.2398 7.90113C16.2911 7.82399 16.3267 7.73749 16.3445 7.64658C16.4497 7.1127 16.6083 6.57629 16.816 6.05219C17.5451 4.21199 19.0247 2.74249 20.8755 2.02063C23.4918 1.00018 26.249 1.27384 28.44 2.77098C30.5823 4.23512 31.8614 6.65613 31.8614 9.24726C31.8614 10.8734 31.3679 12.4329 30.4341 13.7573C30.4283 13.7656 26.3064 20.1821 26.3064 20.1821C26.2334 20.2959 26.1946 20.4282 26.1945 20.5634V21.6389H26.0223L26.424 14.8207H27.0964C28.1783 14.8207 29.0583 13.9407 29.0583 12.8588V12.7809C29.0583 11.699 28.1783 10.819 27.0964 10.819C26.0592 10.819 25.1988 11.6301 25.1379 12.6656L25.0941 13.4102H22.96L22.9162 12.6656C22.8552 11.6301 21.9948 10.819 20.9576 10.819C19.8757 10.819 18.9957 11.699 18.9957 12.7809V12.8588C18.9957 13.9407 19.8757 14.8207 20.9576 14.8207H21.63L22.0317 21.6389H21.8527V20.5634C21.8528 20.4282 21.814 20.2959 21.741 20.1821ZM26.5462 12.7484C26.5545 12.6081 26.6161 12.4762 26.7184 12.3798C26.8207 12.2833 26.9559 12.2295 27.0965 12.2294C27.2427 12.2296 27.3828 12.2877 27.4861 12.3911C27.5895 12.4944 27.6476 12.6345 27.6478 12.7807V12.8586C27.6476 13.0048 27.5895 13.1449 27.4861 13.2483C27.3828 13.3516 27.2427 13.4097 27.0965 13.4099H26.5071L26.5462 12.7484ZM20.9576 13.41C20.8114 13.4098 20.6713 13.3517 20.5679 13.2484C20.4646 13.145 20.4065 13.0049 20.4063 12.8587V12.7808C20.4065 12.6346 20.4646 12.4945 20.5679 12.3912C20.6713 12.2878 20.8114 12.2297 20.9576 12.2295C21.2491 12.2295 21.4909 12.4575 21.508 12.7485L21.547 13.4101H20.9576V13.41ZM25.915 25.0098C25.9148 25.1814 25.8465 25.3459 25.7252 25.4672C25.6039 25.5885 25.4394 25.6568 25.2678 25.657H22.7795C22.6079 25.6568 22.4434 25.5885 22.3221 25.4672C22.2008 25.3459 22.1325 25.1814 22.1323 25.0098V23.0495H25.915V25.0098ZM23.0431 14.8206H25.0109L24.6092 21.6388H23.445L23.0431 14.8206ZM36.2393 10.0131C36.2393 10.4027 36.555 10.7184 36.9446 10.7184H38.6073C38.9969 10.7184 39.3126 10.4027 39.3126 10.0131C39.3126 9.62352 38.9969 9.30782 38.6073 9.30782H36.9446C36.7576 9.30782 36.5782 9.38213 36.4459 9.5144C36.3136 9.64668 36.2393 9.82607 36.2393 10.0131ZM35.829 6.28401C35.9104 6.28401 35.9932 6.26981 36.074 6.23981L37.6329 5.66192C37.8081 5.59673 37.9502 5.46469 38.0281 5.29479C38.106 5.12489 38.1132 4.93103 38.0483 4.75578C37.9833 4.58053 37.8515 4.43823 37.6817 4.36013C37.5119 4.28203 37.318 4.27451 37.1427 4.33922L35.5838 4.91711C35.4284 4.97451 35.2983 5.08473 35.216 5.22846C35.1338 5.37219 35.1048 5.54027 35.134 5.70326C35.1633 5.86624 35.2489 6.01375 35.376 6.11992C35.5031 6.2261 35.6634 6.28419 35.829 6.28401ZM35.5839 15.1093L37.1428 15.687C37.2236 15.717 37.3064 15.7312 37.3878 15.7312C37.5533 15.7313 37.7135 15.6731 37.8405 15.5669C37.9675 15.4607 38.053 15.3133 38.0822 15.1504C38.1115 14.9875 38.0825 14.8195 38.0003 14.6758C37.9182 14.5321 37.7881 14.4218 37.6329 14.3643L36.074 13.7866C35.8986 13.7216 35.7046 13.729 35.5346 13.807C35.3646 13.8851 35.2326 14.0274 35.1675 14.2028C35.1026 14.3782 35.1099 14.5722 35.188 14.7422C35.2661 14.9122 35.4085 15.0442 35.5839 15.1093ZM9.44018 10.7184H11.1028C11.4924 10.7184 11.8081 10.4027 11.8081 10.0131C11.8081 9.62352 11.4924 9.30782 11.1028 9.30782H9.44018C9.05056 9.30782 8.73486 9.62352 8.73486 10.0131C8.73486 10.4027 9.05056 10.7184 9.44018 10.7184ZM10.4144 5.66201L11.9733 6.2399C12.0541 6.26981 12.1368 6.2841 12.2183 6.2841C12.3837 6.28401 12.5439 6.22578 12.6707 6.11959C12.7976 6.0134 12.8831 5.866 12.9123 5.70315C12.9415 5.5403 12.9126 5.37237 12.8305 5.22871C12.7485 5.08504 12.6185 4.97478 12.4634 4.9172L10.9045 4.33932C10.7291 4.27439 10.5351 4.28175 10.3651 4.3598C10.1951 4.43785 10.0631 4.58019 9.99803 4.75555C9.9331 4.93096 9.94049 5.12498 10.0186 5.29496C10.0966 5.46494 10.239 5.59696 10.4144 5.66201ZM12.8798 14.2028C12.8476 14.1159 12.7986 14.0363 12.7356 13.9683C12.6726 13.9004 12.5969 13.8456 12.5127 13.8069C12.4286 13.7682 12.3376 13.7466 12.245 13.7431C12.1525 13.7396 12.0601 13.7544 11.9733 13.7866L10.4144 14.3643C10.2402 14.4303 10.0992 14.5624 10.022 14.7319C9.94492 14.9014 9.93795 15.0945 10.0027 15.2691C10.0674 15.4437 10.1985 15.5856 10.3674 15.6639C10.5364 15.7422 10.7294 15.7505 10.9045 15.687L12.4634 15.1093C12.5503 15.0771 12.63 15.0281 12.6979 14.9651C12.7658 14.9022 12.8207 14.8264 12.8593 14.7422C12.898 14.6581 12.9197 14.5671 12.9232 14.4745C12.9267 14.382 12.9119 14.2896 12.8798 14.2028Z" fill="#2395FF"/>
</g>
<defs>
<clipPath id="clip0_590_3460">
<rect width="48" height="48" fill="white"/>
</clipPath>
</defs>
</svg>
