<svg width="48" height="48" viewBox="0 0 48 48" fill="none" xmlns="http://www.w3.org/2000/svg">
<g clip-path="url(#clip0_590_3453)">
<path d="M39.0315 40.8349C34.8982 44.5486 29.56 46.5939 24 46.5939C17.9901 46.5939 12.3398 44.2535 8.08994 40.0037C3.84021 35.754 1.49976 30.1037 1.49976 24.0937C1.49976 18.0836 3.84021 12.4334 8.08994 8.18359C12.3398 3.93387 17.9901 1.59342 24 1.59342C26.8952 1.59342 29.7151 2.13642 32.3813 3.20752C32.4669 3.24194 32.5585 3.25915 32.6509 3.25816C32.7432 3.25718 32.8344 3.23802 32.9193 3.20178C33.0042 3.16554 33.0812 3.11293 33.1457 3.04695C33.2103 2.98098 33.2613 2.90293 33.2957 2.81726C33.3301 2.73159 33.3473 2.63999 33.3463 2.54767C33.3453 2.45535 33.3262 2.36414 33.2899 2.27922C33.2537 2.19431 33.2011 2.11737 33.1351 2.05279C33.0691 1.98821 32.9911 1.93725 32.9054 1.90284C30.0717 0.764622 27.0754 0.1875 24 0.1875C17.6145 0.1875 11.6111 2.67418 7.0957 7.18945C2.58043 11.7047 0.09375 17.7081 0.09375 24.0937C0.09375 30.4792 2.58043 36.4826 7.0957 40.9979C11.6111 45.5132 17.6145 47.9998 24 47.9998C29.9074 47.9998 35.5795 45.8266 39.9713 41.8806C40.041 41.8192 40.0979 41.7446 40.1386 41.661C40.1793 41.5775 40.2031 41.4867 40.2085 41.394C40.2139 41.3012 40.2009 41.2083 40.1702 41.1206C40.1395 41.0329 40.0917 40.9522 40.0296 40.8831C39.9675 40.814 39.8923 40.7579 39.8083 40.718C39.7244 40.6781 39.6334 40.6553 39.5406 40.6508C39.4478 40.6463 39.355 40.6603 39.2676 40.6919C39.1803 40.7235 39.1 40.7721 39.0315 40.8349ZM46.0598 14.8675C46.0242 14.7823 45.9721 14.7051 45.9066 14.64C45.841 14.575 45.7633 14.5235 45.6779 14.4885C45.5925 14.4535 45.501 14.4357 45.4087 14.436C45.3164 14.4364 45.2251 14.4549 45.1399 14.4906C45.0547 14.5262 44.9775 14.5783 44.9124 14.6438C44.8474 14.7094 44.7959 14.7871 44.7609 14.8725C44.7259 14.9579 44.7081 15.0494 44.7084 15.1417C44.7088 15.234 44.7273 15.3254 44.763 15.4105C45.9158 18.1639 46.5004 21.0854 46.5004 24.0937C46.5004 29.4572 44.5808 34.6522 41.0954 38.7217C40.9778 38.8637 40.9207 39.0463 40.9364 39.23C40.9522 39.4138 41.0395 39.584 41.1796 39.704C41.3196 39.824 41.5012 39.8841 41.6852 39.8714C41.8692 39.8588 42.0409 39.7743 42.1632 39.6363C45.8667 35.3123 47.9064 29.7924 47.9064 24.0938C47.9063 20.8979 47.285 17.7938 46.0598 14.8675Z" fill="#2395FF"/>
<path d="M8.54266 15.4262C8.37659 15.3415 8.18366 15.3262 8.0063 15.3836C7.82893 15.4411 7.68164 15.5666 7.59679 15.7327C6.2668 18.3373 5.59229 21.1503 5.59229 24.0938C5.59229 34.2439 13.85 42.5015 24.0001 42.5015C34.1502 42.5015 42.4079 34.2438 42.4079 24.0938C42.4079 22.371 42.1696 20.6645 41.6996 19.0216C41.6482 18.8424 41.5278 18.691 41.3648 18.6005C41.2018 18.51 41.0096 18.4879 40.8304 18.5391C40.6511 18.5904 40.4996 18.7108 40.4091 18.8738C40.3186 19.0368 40.2966 19.2291 40.3478 19.4084C40.7819 20.9254 41.002 22.5019 41.002 24.0938C41.002 33.4686 33.375 41.0955 24.0002 41.0955C14.6254 41.0955 6.9983 33.4685 6.9983 24.0937C6.9983 21.3746 7.62098 18.7767 8.84899 16.372C8.93377 16.206 8.94913 16.0131 8.89169 15.8357C8.83424 15.6583 8.7087 15.511 8.54266 15.4262ZM29.3509 7.19863C29.3752 7.10956 29.3818 7.01658 29.3701 6.925C29.3585 6.83341 29.3289 6.74501 29.2831 6.66485C29.2374 6.58468 29.1762 6.51432 29.1032 6.45778C29.0303 6.40125 28.9468 6.35964 28.8578 6.33533C27.2746 5.90384 25.641 5.68548 24.0001 5.68604C21.047 5.68604 18.226 6.36439 15.6156 7.70226C13.1261 8.97817 10.923 10.8401 9.24455 13.0868C9.18804 13.1607 9.14676 13.245 9.12308 13.3349C9.0994 13.4249 9.09379 13.5186 9.10659 13.6107C9.11939 13.7028 9.15034 13.7915 9.19764 13.8716C9.24494 13.9516 9.30765 14.0215 9.38215 14.0772C9.45665 14.1328 9.54146 14.1731 9.63165 14.1958C9.72184 14.2185 9.81563 14.223 9.90759 14.2091C9.99955 14.1953 10.0878 14.1633 10.1674 14.1151C10.2469 14.0669 10.3161 14.0034 10.3709 13.9283C11.9219 11.8524 13.9572 10.1321 16.2569 8.95352C18.667 7.71829 21.2722 7.09205 24.0001 7.09205C25.5199 7.09205 27.0297 7.29377 28.4876 7.69176C28.6675 7.7408 28.8595 7.7164 29.0214 7.62392C29.1833 7.53145 29.3018 7.37847 29.3509 7.19863Z" fill="#2395FF"/>
<path d="M25.5053 12.4817C25.5115 12.3895 25.4996 12.2971 25.4701 12.2096C25.4407 12.1221 25.3942 12.0413 25.3335 11.9717C25.2728 11.9022 25.199 11.8453 25.1163 11.8042C25.0336 11.7632 24.9436 11.7389 24.8515 11.7326C24.5619 11.713 24.2754 11.703 24 11.703C17.1677 11.703 11.6094 17.2614 11.6094 24.0936C11.6094 30.9258 17.1678 36.4843 24 36.4843C30.8322 36.4843 36.3906 30.9258 36.3906 24.0936C36.3906 23.767 36.3772 23.4328 36.3509 23.1003C36.3437 23.0083 36.3185 22.9185 36.2765 22.8362C36.2346 22.7539 36.1769 22.6807 36.1066 22.6208C36.0364 22.5608 35.955 22.5153 35.8671 22.4869C35.7792 22.4585 35.6866 22.4477 35.5946 22.4551C35.4087 22.4698 35.2363 22.5578 35.1153 22.6996C34.9943 22.8414 34.9346 23.0255 34.9493 23.2114C34.9727 23.5071 34.9846 23.8039 34.9846 24.0936C34.9846 30.1506 30.0569 35.0783 24 35.0783C17.9431 35.0783 13.0154 30.1506 13.0154 24.0936C13.0154 18.0367 17.9431 13.109 24 13.109C24.2438 13.109 24.4981 13.1179 24.7563 13.1355C25.1419 13.161 25.479 12.8691 25.5053 12.4817Z" fill="#2395FF"/>
<path d="M23.995 19.2485C24.0077 19.249 24.0204 19.2494 24.0332 19.2495C24.4187 19.249 24.7395 18.9397 24.7422 18.5514C24.745 18.1632 24.4336 17.8462 24.0453 17.8433C24.0301 17.8429 24.015 17.8424 23.9998 17.8424C20.5529 17.8424 17.7485 20.6467 17.7485 24.0937C17.7485 27.5407 20.5529 30.3451 23.9998 30.3451C27.4196 30.3451 30.2233 27.5628 30.25 24.1429C30.2514 23.9565 30.1787 23.7771 30.0479 23.6443C29.9171 23.5114 29.7389 23.436 29.5525 23.4345H29.5469C29.3614 23.4345 29.1834 23.5078 29.0517 23.6385C28.9201 23.7692 28.8454 23.9466 28.844 24.1321C28.8234 26.7827 26.6504 28.939 23.9998 28.939C21.3281 28.939 19.1545 26.7654 19.1545 24.0937C19.1545 21.422 21.3282 19.2484 23.995 19.2485Z" fill="#2395FF"/>
<path d="M26.9732 13.3014L28.2645 17.2064L24.8272 20.7655C24.0227 21.5985 23.5767 22.7402 23.6037 23.8979C23.608 24.0812 23.6837 24.2555 23.8147 24.3838C23.9457 24.512 24.1216 24.5841 24.3049 24.5845H24.3145C25.469 24.5845 26.5973 24.115 27.4109 23.2955L28.2893 22.4109C28.4185 22.2781 28.49 22.0998 28.4884 21.9145C28.4869 21.7293 28.4122 21.5522 28.2808 21.4217C28.1493 21.2912 27.9717 21.2178 27.7865 21.2176C27.6012 21.2173 27.4234 21.2902 27.2916 21.4203L26.4132 22.305C26.0496 22.6712 25.5932 22.9343 25.1002 23.071C25.2265 22.5753 25.48 22.1135 25.8385 21.7424L41.9996 5.00854C42.0189 4.98824 42.0421 4.97205 42.0678 4.96093C42.0935 4.94982 42.1212 4.94402 42.1492 4.94387C42.1772 4.94337 42.205 4.94847 42.231 4.95887C42.257 4.96927 42.2807 4.98476 42.3006 5.00442L42.8023 5.49559C42.8545 5.54667 42.8658 5.60535 42.8661 5.64566C42.8664 5.68596 42.856 5.74492 42.8046 5.79657L29.4407 19.2559C29.3115 19.3886 29.24 19.567 29.2416 19.7522C29.2432 19.9374 29.3178 20.1145 29.4492 20.245C29.5807 20.3755 29.7583 20.4489 29.9435 20.4492C30.1288 20.4494 30.3066 20.3766 30.4384 20.2465L30.8973 19.7843C30.8973 19.7843 35.1416 21.0644 35.2994 21.0644C35.7005 21.0644 36.095 20.9145 36.3963 20.6348L47.3725 10.4384C47.5711 10.2548 47.7199 10.0239 47.8052 9.76725C47.8904 9.51059 47.9093 9.23651 47.86 8.9706C47.812 8.70445 47.6975 8.45478 47.5269 8.24488C47.3564 8.03498 47.1355 7.87169 46.8848 7.77024L43.9725 6.5829C44.17 6.30683 44.2749 5.97524 44.272 5.63581C44.2711 5.42231 44.2277 5.21112 44.1442 5.0146C44.0608 4.81807 43.939 4.64015 43.786 4.49122L43.2843 4.00006C42.9828 3.70294 42.5761 3.53687 42.1528 3.53795L42.1298 3.53804C41.7904 3.54227 41.4611 3.65405 41.1892 3.8573L39.941 0.970472C39.8343 0.721981 39.6664 0.504562 39.453 0.338493C39.2395 0.172424 38.9875 0.0631134 38.7204 0.0207568C38.4535 -0.0228908 38.1799 0.00174404 37.9251 0.0923651C37.6703 0.182986 37.4426 0.336643 37.2632 0.539013L27.2993 11.7264C27.1118 11.9374 26.9831 12.194 26.9259 12.4703C26.8686 12.7467 26.8849 13.0333 26.9732 13.3014ZM41.5506 13.9275L38.1068 12.5234L40.2923 10.3223L43.864 11.7785L41.5506 13.9275ZM38.0901 17.1421L34.8459 15.8076L37.0337 13.6043L40.4147 14.9827L38.0901 17.1421ZM35.4393 19.6047C35.4133 19.6288 35.3813 19.6457 35.3466 19.6537C35.312 19.6616 35.2758 19.6603 35.2418 19.6498L32.0162 18.6576L33.7741 16.887L36.9559 18.1958L35.4393 19.6047ZM46.4769 9.2234C46.4843 9.26427 46.4863 9.34253 46.4155 9.40834L44.9999 10.7233L41.3655 9.24158L42.9227 7.67322L46.354 9.0722C46.4435 9.10867 46.4694 9.18262 46.4769 9.2234ZM32.8658 7.59027L34.3148 10.9417L32.1578 13.1752L30.7556 9.95959L32.8658 7.59027ZM35.997 4.07458L37.5276 7.61501L35.3729 9.84617L33.8969 6.43246L35.997 4.07458ZM38.3131 1.47411C38.3354 1.44823 38.3641 1.42861 38.3963 1.41717C38.4285 1.40573 38.4631 1.40287 38.4968 1.40887C38.5377 1.41543 38.6121 1.4398 38.6506 1.52847L40.1212 4.92971L38.5858 6.51945L37.0282 2.91677L38.3131 1.47411ZM28.3491 12.6615L29.7258 11.1158L31.1009 14.2695L29.3677 16.0641L28.308 12.8599C28.297 12.8261 28.2949 12.79 28.3021 12.7552C28.3093 12.7204 28.3255 12.6881 28.3491 12.6615Z" fill="#2395FF"/>
</g>
<defs>
<clipPath id="clip0_590_3453">
<rect width="48" height="48" fill="white"/>
</clipPath>
</defs>
</svg>
