<svg width="107" height="24" viewBox="0 0 107 24" fill="none" xmlns="http://www.w3.org/2000/svg">
<path d="M12.688 14.328L19.12 0.599998H24.752V23H20.4V7.096L14.064 20.024H11.184L4.848 7.096V23H0.496V0.599998H6.256L12.688 14.328ZM37.906 23.512C33.1913 23.512 29.9167 21.464 28.082 17.368L31.986 15.448C32.6047 16.728 33.4047 17.7093 34.386 18.392C35.3673 19.0747 36.5727 19.416 38.002 19.416C39.2393 19.416 40.2633 19.1707 41.074 18.68C41.8847 18.1893 42.29 17.528 42.29 16.696C42.29 15.9493 41.9593 15.3733 41.298 14.968C40.658 14.5627 39.8473 14.2213 38.866 13.944C37.906 13.6667 36.8607 13.3893 35.73 13.112C34.5993 12.8347 33.5433 12.4613 32.562 11.992C31.602 11.5013 30.7913 10.8507 30.13 10.04C29.49 9.22933 29.17 8.152 29.17 6.808C29.17 5.80533 29.362 4.89867 29.746 4.088C30.1513 3.256 30.706 2.54133 31.41 1.944C32.1353 1.34667 33.01 0.887999 34.034 0.567999C35.058 0.247999 36.21 0.0879993 37.49 0.0879993C39.538 0.0879993 41.3513 0.525333 42.93 1.4C44.5087 2.27467 45.7567 3.59733 46.674 5.368L42.866 7.352C42.3753 6.328 41.6713 5.53867 40.754 4.984C39.8367 4.408 38.7593 4.12 37.522 4.12C36.306 4.12 35.3673 4.36533 34.706 4.856C34.0447 5.34667 33.714 5.912 33.714 6.552C33.714 7.21333 34.034 7.72533 34.674 8.088C35.3353 8.45067 36.1567 8.76 37.138 9.016C38.1193 9.272 39.1753 9.53867 40.306 9.816C41.4367 10.0933 42.4927 10.488 43.474 11C44.4553 11.4907 45.266 12.1627 45.906 13.016C46.5673 13.848 46.898 14.968 46.898 16.376C46.898 17.464 46.6847 18.4453 46.258 19.32C45.8527 20.1947 45.2553 20.952 44.466 21.592C43.6767 22.2107 42.7273 22.68 41.618 23C40.53 23.3413 39.2927 23.512 37.906 23.512ZM54.9745 13.4V19.096H60.1265C61.0438 19.096 61.7798 18.84 62.3345 18.328C62.9105 17.816 63.1985 17.1227 63.1985 16.248C63.1985 15.3733 62.9105 14.68 62.3345 14.168C61.7798 13.656 61.0438 13.4 60.1265 13.4H54.9745ZM54.9745 9.624H59.5825C60.3718 9.624 61.0225 9.38933 61.5345 8.92C62.0465 8.45067 62.3025 7.832 62.3025 7.064C62.3025 6.296 62.0465 5.67733 61.5345 5.208C61.0225 4.73867 60.3718 4.504 59.5825 4.504H54.9745V9.624ZM50.5585 0.599998H59.9985C61.0012 0.599998 61.9185 0.738665 62.7505 1.016C63.6038 1.272 64.3292 1.656 64.9265 2.168C65.5452 2.68 66.0145 3.29867 66.3345 4.024C66.6758 4.728 66.8465 5.528 66.8465 6.424C66.8465 7.576 66.5692 8.568 66.0145 9.4C65.4598 10.232 64.6705 10.8507 63.6465 11.256C65.0118 11.6613 66.0358 12.3333 66.7185 13.272C67.4012 14.1893 67.7425 15.3307 67.7425 16.696C67.7425 17.6347 67.5718 18.488 67.2305 19.256C66.9105 20.024 66.4412 20.6853 65.8225 21.24C65.2038 21.7947 64.4358 22.232 63.5185 22.552C62.6225 22.8507 61.6092 23 60.4785 23H50.5585V0.599998ZM75.8183 11.48H80.1703C81.2369 11.48 82.0796 11.16 82.6983 10.52C83.3383 9.88 83.6583 9.05867 83.6583 8.056C83.6583 7.05333 83.3383 6.232 82.6983 5.592C82.0796 4.952 81.2369 4.632 80.1703 4.632H75.8183V11.48ZM71.4023 23V0.599998H80.4263C81.5783 0.599998 82.6236 0.781332 83.5623 1.144C84.5223 1.48533 85.3436 1.98667 86.0263 2.648C86.7303 3.30933 87.2636 4.09867 87.6263 5.016C88.0103 5.912 88.2023 6.92533 88.2023 8.056C88.2023 9.18667 88.0103 10.2107 87.6263 11.128C87.2636 12.0453 86.7303 12.8347 86.0263 13.496C85.3436 14.136 84.5223 14.6373 83.5623 15C82.6236 15.3413 81.5783 15.512 80.4263 15.512H75.8183V23H71.4023ZM91.8398 0.599998H96.3838V18.84H106.624V23H91.8398V0.599998Z" fill="black"/>
</svg>
